<svg enable-background="new 0 0 48 48" viewBox="0 0 48 48" xmlns="http://www.w3.org/2000/svg"><path d="m25.8 36h-23.5c-1.3 0-2.3-1-2.3-2.2v-20.7c0-1.2 1-2.3 2.3-2.3h23.6c1.2 0 2.3 1 2.3 2.3v20.6c-.1 1.3-1.1 2.3-2.4 2.3z" fill="#705a9b"/><path d="m39.1 41.4h-36.8c-1.3 0-2.3-1-2.3-2.3v-20.6c0-1.2 1-2.3 2.3-2.3h36.9c1.2 0 2.3 1 2.3 2.3v20.6c-.1 1.3-1.1 2.3-2.4 2.3z" fill="#9d85c1"/><path d="m47.8 25-5.8-15.1c-.5-1.4-2.1-2.1-3.5-1.5l-20.4 7.9h21.1c1.2 0 2.3 1 2.3 2.3v11.9l4.9-1.9c1.3-.6 2-2.2 1.4-3.6z" fill="#d3c1e7"/><path d="m31.7 7.9c-.8-1.3-2.5-1.6-3.8-.8l-13.8 9.2h4l15.2-5.9z" fill="#ae95ce"/><path d="m41.4 24h-11.6c-1.4 0-2.6 1.1-2.6 2.6v4.3c0 1.4 1.1 2.6 2.6 2.6h11.6z" fill="#705a9b"/><path d="m31.5 30.4c1 0 1.8-.8 1.8-1.7s-.8-1.7-1.8-1.7-1.8.8-1.8 1.7c0 1 .8 1.7 1.8 1.7z" fill="#d3c1e7"/><path d="m16.7 22.3c-.7-1.4-2.5-2-3.9-1.3-1.3.6-1.8 2-1.5 3.3l-3.8 2.4h-7.5v1.7h7.8c.1 0 .2 0 .3-.1 0 0 .1 0 .1-.1 0 0 .1 0 .1-.1l3.9-2.5c.9.8 2.1 1.1 3.3.5 1.4-.5 1.9-2.3 1.2-3.8z" fill="#ede5f4"/><path d="m21.1 31.2c-.7-1.5-2.5-2.1-4-1.3-.8.4-1.3 1.1-1.5 1.8h-15.6v1.7h15.6c.1.1.1.3.2.5.7 1.5 2.5 2.1 4 1.3 1.4-.8 2-2.5 1.3-4z" fill="#d3c1e7"/></svg>