<svg enable-background="new 0 0 48 48" viewBox="0 0 48 48" xmlns="http://www.w3.org/2000/svg" xmlns:xlink="http://www.w3.org/1999/xlink"><mask id="a" height="20.6" maskUnits="userSpaceOnUse" width="48" x="0" y="22"><path clip-rule="evenodd" d="m.1 21.9h47.9v20.7h-47.9z" fill="#fff" fill-rule="evenodd"/></mask><g clip-rule="evenodd" fill-rule="evenodd"><path d="m28 10.3-14.3 11v4.9h28.2v-5.3z" fill="#785a9f"/><path d="m42.6 21.5-14.6-11.2-14.7 11.2c-.8.6-1.8.5-2.5-.2-.7-.8-.7-2 .2-2.7l15.7-12.1c.7-.7 1.8-.7 2.5 0l15.6 12.2c.9.7 1 1.9.2 2.7-.5.7-1.6.7-2.4.1" fill="#dac2e9"/><path d="m44.7 26.5-9.2-3.6c-1.5-.6-3.1-.9-4.8-.9h-5.6c-2 0-4 .5-5.8 1.4l-8.2 4.1-6 .9c-1.4.2-2.7.9-3.7 2s-1.5 2.5-1.5 3.9v3.5c.1.5.5.9 1 .9h4.2c.2.9.7 1.8 1.4 2.5 1 .9 2.2 1.4 3.5 1.4s2.6-.5 3.5-1.4c.7-.7 1.2-1.6 1.4-2.5h17.5c.2.9.7 1.8 1.4 2.5.9.9 2.2 1.4 3.5 1.4s2.6-.5 3.5-1.4c.7-.7 1.2-1.6 1.4-2.5h4.8c.5 0 1-.5 1-1v-6.5c-.1-2.1-1.3-4-3.3-4.7" fill="#a786c4" mask="url(#a)"/><g fill="#dac2e9"><path d="m13.7 37.7c0-1.7-1.5-3.1-3.3-3.1s-3.3 1.4-3.3 3.1 1.4 3.1 3.3 3.1c1.8-.1 3.3-1.5 3.3-3.1"/><path d="m40.9 37.2c0-1.7-1.4-3.1-3.3-3.1s-3.3 1.4-3.3 3.1 1.4 3.1 3.3 3.1 3.3-1.4 3.3-3.1"/></g></g></svg>