<svg enable-background="new 0 0 48 48" viewBox="0 0 48 48" xmlns="http://www.w3.org/2000/svg"><path d="m46.2 39.7h-36.7c-1 0-1.8-.8-1.8-1.8v-16.8c0-1 .8-1.8 1.8-1.8h36.7c1 0 1.8.8 1.8 1.8v16.8c0 1-.8 1.8-1.8 1.8z" fill="#705a9b"/><path d="m42.3 34.7h-36.6c-1 0-1.8-.8-1.8-1.8v-16.8c0-1 .8-1.8 1.8-1.8h36.7c1 0 1.8.8 1.8 1.8v16.8c-.1 1-.9 1.8-1.9 1.8z" fill="#ae95ce"/><path d="m38.5 29.5h-36.6c-1 0-1.8-.8-1.8-1.8v-16.9c-.1-1 .7-1.8 1.7-1.8h36.7c1 0 1.8.8 1.8 1.8v16.8c0 1-.8 1.9-1.8 1.9z" fill="#9d85c1"/><path d="m19.5 29.4c4.6 0 8.4-4.6 8.4-10.2s-3.8-10.2-8.4-10.2-8.4 4.6-8.4 10.2 3.7 10.2 8.4 10.2z" fill="#ede5f4" opacity=".7"/><path d="m24.9 21.8c.4.3.5.7.4 1.1-.8 1.9-3.1 4.3-5.7 4.3-2.8 0-5-2.3-5.7-4.2-.1-.4 0-.8.4-1.1.7-.5 1.7-1 2.6-1.3.3-.1.7-.1.9.2.4.3.9.7 1.8.7.8 0 1.5-.3 2-.8.3-.3.7-.3 1-.2.7.3 1.6.8 2.3 1.3zm-2.8-5.7c0-2-1.2-3.7-2.6-3.7s-2.6 1.7-2.6 3.7 1.2 3.7 2.6 3.7 2.6-1.7 2.6-3.7z" fill="#836aaa"/><g fill="#d3c1e7"><path d="m0 23.9v3.7c0 1 .8 1.9 1.8 1.9h3.7c0-3.1-2.4-5.6-5.5-5.6zm40.3 3.7v-3.7c-3.1 0-5.5 2.5-5.5 5.5h3.7c1 .1 1.8-.8 1.8-1.8z"/><path d="m0 14.5v-3.7c0-1 .8-1.8 1.8-1.8h3.7c0 3.1-2.4 5.5-5.5 5.5zm40.3-3.6v3.7c-3.1 0-5.5-2.5-5.5-5.5h3.7c1-.1 1.8.7 1.8 1.8z"/></g></svg>