<svg enable-background="new 0 0 48 48" viewBox="0 0 48 48" xmlns="http://www.w3.org/2000/svg" xmlns:xlink="http://www.w3.org/1999/xlink"><mask id="a" height="33.4" maskUnits="userSpaceOnUse" width="34" x="0" y="7"><path clip-rule="evenodd" d="m0 7h34v33.4h-34z" fill="#fff" fill-rule="evenodd"/></mask><mask id="b" height="13.9" maskUnits="userSpaceOnUse" width="14" x="0" y="26.5"><path clip-rule="evenodd" d="m0 26.5h14v13.9h-14z" fill="#fff" fill-rule="evenodd"/></mask><g clip-rule="evenodd" fill-rule="evenodd"><path d="m34 9.9c0-1.6-1.3-2.9-3-2.9h-28.1c-1.6 0-2.9 1.3-2.9 2.9v16.6l13.9 13.8h17.1c1.6 0 2.9-1.3 2.9-2.9z" fill="#a786c4" mask="url(#a)"/><path d="m14 40.4v-11c0-1.6-1.3-2.9-3-2.9h-11z" fill="#785a9f" mask="url(#b)"/><path d="m17.8 11.5c-.6-.4-1.4-.2-1.8.3l-4.6 6.3-3.1-3.6c-.5-.5-1.4-.5-1.9-.1-.5.5-.7 1.3-.2 1.8l4.2 4.9.1.1c.1 0 .1.1.1.1s.1.1.1.1c.1 0 .1.1.1.1.1 0 .1.1.1.1.1 0 .1 0 .1.1h.1.1.1.1.1c.1 0 .1 0 .1-.1.1 0 .1 0 .1-.1.1 0 .1-.1.1-.1s.1-.1.1-.1l.1-.1c.1 0 .1-.1.1-.1 0-.1.1-.1.1-.1l5.6-7.7c.7-.6.6-1.3 0-1.8" fill="#785a9f"/><path d="m23.7 16.2 9.2 1-8.1 8.1z" fill="#dac2e9"/><path d="m27.4 16.7-3.8-.4.4 3.8z" fill="#785a9f"/><path d="m47.6 31.9-4 4.1-14.8-14.7 4.1-4z" fill="#8d6aae"/><path d="m43.6 35.9-4.1 4.1-14.7-14.7 4.1-4.1z" fill="#785a9f"/><path d="m43.6 35.9-3.1 3.1 1.1 1.1c.4.4 1 .4 1.3 0l4.9-4.9c.4-.4.4-1 0-1.3l-1.1-1.1z" fill="#dac2e9"/></g></svg>