<svg enable-background="new 0 0 48 48" viewBox="0 0 48 48" xmlns="http://www.w3.org/2000/svg"><path d="m4.9 18.4h37.8c1 0 1.3-1.5.5-2.1l-17.5-9.2c-1-.5-2.1-.5-3.1 0l-18.2 9.2c-.9.5-.5 2.1.5 2.1z" fill="#9d85c1"/><g fill="#ae95ce"><path d="m8 19c0 .7.5 1.3 1.3 1.3h.1v.1 11.5.1h-.2c-.7 0-1.3.6-1.3 1.3v.7h6.3v-.7c0-.7-.5-1.3-1.3-1.3h-.2v-.1-11.5-.1h.3c.7 0 1.3-.6 1.3-1.3v-.7h-6.3z" opacity=".8"/><path d="m15.7 19c0 .7.5 1.3 1.3 1.3h.2v.1 11.5.1h-.2c-.7 0-1.3.6-1.3 1.3v.7h6.3v-.7c0-.7-.5-1.3-1.3-1.3h-.2v-.1-11.5-.1h.2c.7 0 1.3-.6 1.3-1.3v-.7h-6.3z" opacity=".8"/><path d="m24 19c0 .7.5 1.3 1.3 1.3h.2v.1 11.5.1h-.2c-.7 0-1.3.6-1.3 1.3v.7h6.3v-.7c0-.7-.5-1.3-1.3-1.3h-.2v-.1-11.5-.1h.2c.7 0 1.3-.6 1.3-1.3v-.7h-6.3z" opacity=".8"/><path d="m37.2 20.4v-.1h.2c.7 0 1.3-.6 1.3-1.3v-.7h-6.3v.7c0 .7.5 1.3 1.3 1.3h.2v.1 11.5.1h-.2c-.7 0-1.3.6-1.3 1.3v.7h6.3v-.7c0-.7-.5-1.3-1.3-1.3h-.2v-.1z" opacity=".8"/></g><path d="m24.2 6.7c.5 0 1.1.1 1.5.4l17.5 9.2c.9.6.5 2.1-.5 2.1h-18.5z" fill="#836aaa"/><path d="m43.2 35.3h-38.8c-2.6 0-4.5 1.6-4.4 4.7v1.3.1h48v-.1c0-.1 0-1.3 0-1.5-.2-2.5-1.8-4.5-4.8-4.5z" fill="#9d85c1"/><path d="m4.4 35.3h38.8.1c-.3-.8-1.1-1.5-1.9-1.5h-35.2c-.9 0-1.7.6-1.9 1.5z" fill="#d3c1e7"/></svg>