<svg enable-background="new 0 0 48 48" viewBox="0 0 48 48" xmlns="http://www.w3.org/2000/svg"><path d="m43.6 40.3h-37.3c-1.6 0-2.9-1.3-2.9-2.9v-23c0-1.6 1.3-2.9 2.9-2.9h38.8c1.6 0 2.9 1.3 2.9 2.9v21.5c0 2.4-2 4.4-4.4 4.4z" fill="#705a9b"/><path d="m40.5 34.9h-37.7c-1.5 0-2.8-1.3-2.8-2.8v-22.3c0-1.5 1.3-2.8 2.8-2.8h37.7c1.5 0 2.8 1.3 2.8 2.8v22.4c0 1.5-1.3 2.7-2.8 2.7z" fill="#9d85c1"/><path d="m33.1 11.8c-.6-.3-5.3 1.5-7.3 2.6v-.1c0-.4-.3-.7-.7-.7h-3.3v10.3l5.9 6.5 1.4-2.9 3.2-.4-7.2-7.3v-.1c.3 0 .6-.3.6-.6 1.7 1 5.7 2.3 7.1 2.3.7 0 1.2-1.7 1.4-3.6.2-1.5.2-5.3-1.1-6z" fill="#d3c1e7"/><path d="m21.9 13.6h-2.9c-.3 0-.7.3-.7.7-1.9-1.1-6.8-2.9-7.4-2.5-1.2.8-1.2 4.5-1.1 6.1.2 1.9.7 3.6 1.4 3.6 1.4 0 5.4-1.3 7.1-2.4v.2c0 .2.1.4.3.5l-6.6 7.5 3.3.3 1.4 2.9 5.1-6.4v-10.5z" fill="#ede5f4"/></svg>