<svg enable-background="new 0 0 48 48" viewBox="0 0 48 48" xmlns="http://www.w3.org/2000/svg"><path d="m43.6 40.3h-37.3c-1.6 0-2.9-1.3-2.9-2.9v-23c0-1.6 1.3-2.9 2.9-2.9h38.8c1.6 0 2.9 1.3 2.9 2.9v21.5c0 2.4-2 4.4-4.4 4.4z" fill="#705a9b"/><path d="m40.5 34.9h-37.7c-1.5 0-2.8-1.3-2.8-2.8v-22.3c0-1.5 1.3-2.8 2.8-2.8h37.7c1.5 0 2.8 1.3 2.8 2.8v22.4c0 1.5-1.2 2.7-2.8 2.7z" fill="#9d85c1"/><path d="m11.2 23.8c3.3 0 6-2.7 6-6s-2.7-6-6-6-6 2.7-6 6 2.7 6 6 6z" fill="#705a9b"/><path d="m18.7 23.8c3.3 0 6-2.7 6-6s-2.7-6-6-6-6 2.7-6 6 2.7 6 6 6z" fill="#d3c1e7"/><g fill="#ede5f4"><path d="m37.4 31.1h-11.5c-.5 0-1-.5-1-1s.5-1 1-1h11.5c.5 0 1 .5 1 1s-.5 1-1 1z"/><path d="m12.5 31.1h-5.1c-.5 0-1-.5-1-1s.5-1 1-1h5.1c.5 0 1 .5 1 1s-.5 1-1 1z"/></g></svg>