<svg enable-background="new 0 0 48 48" viewBox="0 0 48 48" xmlns="http://www.w3.org/2000/svg"><g fill="#d3c1e7"><path d="m38.2 24.6c.5 1.3 1.7 2.1 3.2 1.9 1.2-.2 2.1-1.1 2.4-2.3.4-1.9-1-3.5-2.9-3.5-1.3 0-2.3.8-2.7 2h-2.6c.1.5.1.9.1 1.3v.5h2.5z"/><path d="m2.6 12.7c1.5.2 2.7-.7 3.2-1.9h5.5l4.7 5.2c.5-.5.9-.8 1.5-1.2l-5-5.6c-.1-.1-.2-.1-.3-.2-.2 0-.3 0-.5 0h-5.9c-.4-1.1-1.5-1.9-2.7-1.9-1.8 0-3.3 1.7-2.9 3.5.3 1.1 1.2 1.9 2.4 2.1z"/><path d="m32.4 16.1 4.8-5.3h5.1c.5 1.3 1.7 2.1 3.2 1.9 1.2-.2 2.1-1.1 2.4-2.2.5-1.9-1-3.5-2.8-3.5-1.3 0-2.3.8-2.7 1.9h-5.5c-.1 0-.3 0-.3.1-.1.1-.2.1-.3.2l-5.1 5.7c.3.4.8.8 1.2 1.2z"/><path d="m9.9 22.7c-.5-1.3-1.7-2.1-3.2-1.9-1.2.2-2.1 1.1-2.4 2.3-.4 1.9 1 3.5 2.9 3.5 1.3 0 2.3-.8 2.7-2h2.6c0-.2 0-.4 0-.6 0-.5 0-.9.1-1.3z"/><path d="m47.9 36.8c-.3-1.1-1.2-2-2.4-2.2-1.5-.2-2.7.7-3.2 1.9h-5.1l-4.4-5c-.4.5-.9.9-1.3 1.3l4.7 5.3c.1.1.2.1.3.2s.3.1.3.1h5.5c.4 1.1 1.5 1.9 2.7 1.9 1.9 0 3.3-1.6 2.9-3.5z"/><path d="m15.5 31.7-4.3 4.9h-5.5c-.5-1.3-1.7-2.1-3.2-1.9-1.2.2-2.1 1.1-2.4 2.2-.4 1.9 1.1 3.5 2.9 3.5 1.3 0 2.3-.8 2.7-1.9h5.9c.1 0 .3 0 .3-.1.1-.1.2-.1.3-.2l4.6-5.2c-.4-.5-.9-.9-1.3-1.3z"/></g><path d="m14.1 29.9c-3.2-5.5-1.3-12.7 4.3-15.9 5.5-3.2 12.7-1.3 15.9 4.3 3.2 5.5 1.3 12.7-4.3 15.9-5.7 3.1-12.7 1.2-15.9-4.3z" fill="#836aaa"/><path d="m24.1 12.5c-1.9 0-3.9.5-5.7 1.5-5.5 3.2-7.5 10.3-4.3 15.9 2.1 3.7 6 5.8 10 5.8z" fill="#ae95ce"/><path d="m24.1 30.5c-3.6 0-6.5-2.9-6.5-6.5s2.9-6.5 6.5-6.5 6.5 2.9 6.5 6.5-2.9 6.5-6.5 6.5z" fill="#fff"/><path d="m24.1 28.1c-2.1 0-3.9-1.7-3.9-3.9 0-2.1 1.7-3.9 3.9-3.9s3.9 1.7 3.9 3.9c0 2.1-1.8 3.9-3.9 3.9z" fill="#836aaa"/><path d="m20.1 24.1c0 2.1 1.7 3.9 3.9 3.9v-7.9c-2.1.1-3.9 1.8-3.9 4z" fill="#ae95ce"/></svg>