<svg enable-background="new 0 0 230 230" viewBox="0 0 230 230" xmlns="http://www.w3.org/2000/svg"><circle cx="115" cy="115" fill="#774ea3" r="115"/><path d="m230 115c0 63.5-51.5 115-115 115s-115-51.5-115-115z" fill="#653a96"/><path d="m136.7 44.1h-17.9v70.9 71h17.9c2.5 0 4.5-2 4.5-4.5v-16.2c2.9-.2 5.5-.6 7.9-1 3.7-.6 7.3-1.7 10.6-3 3.6-1.4 6.6-3.3 9.1-5.5 2.5-2.3 4.6-5.1 6.2-8.5 1.6-3.3 2.6-7.2 3-11.5 1-8.6-.6-15.4-4.4-20.3-.2-.2-.3-.4-.5-.6-2.1-2.5-4.7-4.6-7.8-6.3 4.6-5 6.5-11.6 5.7-19.7-.4-4.2-1.6-8-3.6-11.1-2-3.2-4.8-5.8-8.2-7.8-3.1-1.8-6.5-3.1-10.2-4-2.4-.6-5-1.1-7.8-1.5v-15.9c0-2.5-2-4.5-4.5-4.5" fill="#875eb2"/><path d="m118.7 44.1h-16.3c-2.5 0-4.5 2-4.5 4.5v15.7c-1 0-2.1 0-3.3 0l-17-.1c-1.2 0-2.3.5-3.2 1.3-.8.8-1.3 2-1.3 3.2v13.1c0 2.5 2 4.5 4.5 4.5h8.9c2.1 0 2.4.5 2.6 1.4v27.3 26.9s-.1 0-.2 0h-8.9c-2.2 0-4.1 1.6-4.4 3.7l-2.5 14.6c-.2 1.3.1 2.6 1 3.6s2.1 1.6 3.4 1.6h16 4.2v.1 15.9c0 2.5 2 4.5 4.5 4.5h16.5v-70.9zm.2 0h-.2z" fill="#a88dc2"/><path d="m60 43.9-15.2-20c-27.3 21.1-44.8 54-44.8 91.1h25.1c0-28.9 13.7-54.6 34.9-71.1z" fill="#9b7bbc"/><path d="m60 186.1-15.2 20c-27.3-21.1-44.8-54-44.8-91.1h25.1c0 28.9 13.7 54.6 34.9 71.1z" fill="#875eb2"/></svg>