<?xml version="1.0" encoding="utf-8"?>
<!-- Generator: Adobe Illustrator 23.0.1, SVG Export Plug-In . SVG Version: 6.00 Build 0)  -->
<!DOCTYPE svg PUBLIC "-//W3C//DTD SVG 1.1//EN" "http://www.w3.org/Graphics/SVG/1.1/DTD/svg11.dtd" [
	<!ENTITY ns_extend "http://ns.adobe.com/Extensibility/1.0/">
	<!ENTITY ns_ai "http://ns.adobe.com/AdobeIllustrator/10.0/">
	<!ENTITY ns_graphs "http://ns.adobe.com/Graphs/1.0/">
	<!ENTITY ns_vars "http://ns.adobe.com/Variables/1.0/">
	<!ENTITY ns_imrep "http://ns.adobe.com/ImageReplacement/1.0/">
	<!ENTITY ns_sfw "http://ns.adobe.com/SaveForWeb/1.0/">
	<!ENTITY ns_custom "http://ns.adobe.com/GenericCustomNamespace/1.0/">
	<!ENTITY ns_adobe_xpath "http://ns.adobe.com/XPath/1.0/">
]>
<svg version="1.1" id="Layer_1" width="40px" height="40px" xmlns:x="&ns_extend;" xmlns:i="&ns_ai;" xmlns:graph="&ns_graphs;"
	 xmlns="http://www.w3.org/2000/svg" xmlns:xlink="http://www.w3.org/1999/xlink" x="0px" y="0px" viewBox="0 0 54 54"
	 style="enable-background:new 0 0 54 54;" xml:space="preserve">
<style type="text/css">
	.st0{fill:none;stroke:#808080;stroke-linecap:round;stroke-linejoin:round;stroke-miterlimit:10;}
</style>
<metadata>
	<sfw  xmlns="&ns_sfw;">
		<slices></slices>
		<sliceSourceBounds  bottomLeftOrigin="true" height="53" width="53" x="0.5" y="-53.5"></sliceSourceBounds>
	</sfw>
</metadata>
<g>
	<g>
		<path class="st0" d="M38.2,24.9c-0.5-0.4-1.2-0.7-1.9-0.8c-0.6-0.1-0.8-0.7-0.6-1.3c0.6-1.1,0.6-2.3,0.1-3.7
			c-0.3-0.7-0.6-1.3-1.1-1.7c-0.5-0.4-1.1-0.8-1.7-0.9c-0.7-0.2-1.4-0.3-2.1-0.2c-0.5,0-1.1,0.1-1.7,0.1c-0.4,0.1-0.8-0.2-0.9-0.6
			l-0.7-2.6c-0.1-0.4-0.6-0.7-1-0.6l-0.9,0.3c-0.4,0.1-0.7,0.6-0.6,1l0.7,2.5c0.1,0.4-0.1,0.9-0.6,1c-0.1,0-0.3,0.1-0.4,0.1
			c-0.5,0.1-0.9-0.1-1-0.6L23,14.3c-0.1-0.4-0.6-0.7-1-0.6L21.1,14c-0.4,0.1-0.7,0.6-0.6,1l0.7,2.6c0.1,0.4-0.1,0.9-0.6,1
			c-0.2,0.1-0.5,0.1-0.8,0.2l-2.7,0.7c-0.4,0.1-0.7,0.6-0.6,1l0.3,1.1c0.1,0.4,0.6,0.7,1,0.6l1-0.3c0.8-0.2,1.4,0,1.8,0.7l3.1,11.4
			c0.1,0.6-0.2,1-0.7,1.1l-1.2,0.3c-0.4,0.1-0.7,0.5-0.6,0.9l0.1,1.5c0,0.5,0.5,0.9,1,0.7l2.4-0.6c0.2-0.1,0.5-0.1,0.9-0.2l0.1,0
			c0.4-0.1,0.9,0.2,1,0.6l0.7,2.6c0.1,0.4,0.6,0.7,1,0.6l0.9-0.3c0.4-0.1,0.7-0.6,0.6-1l-0.7-2.5c-0.1-0.4,0.1-0.9,0.6-1
			c0.1,0,0.3-0.1,0.4-0.1c0.4-0.1,0.9,0.1,1,0.6l0.7,2.5c0.1,0.4,0.6,0.7,1,0.6L34,40c0.4-0.1,0.7-0.6,0.6-1l-0.7-2.7
			c-0.1-0.4,0.1-0.9,0.5-1c0.6-0.2,1.1-0.4,1.6-0.6c0.7-0.3,1.3-0.7,1.9-1.1c0.6-0.4,1-0.9,1.3-1.4c0.3-0.5,0.6-1.1,0.7-1.8
			c0.1-0.7,0.1-1.4,0-2.2C39.6,26.6,39,25.5,38.2,24.9z M24.8,20.5c0.1,0,0.3-0.1,0.7-0.2c0.4-0.1,0.7-0.2,0.9-0.3
			c0.2-0.1,0.6-0.1,1-0.2c0.4-0.1,0.8-0.1,1.1-0.1c0.3,0,0.6,0,1,0c0.4,0,0.7,0.1,0.9,0.3c0.2,0.1,0.5,0.3,0.7,0.6
			c0.2,0.2,0.4,0.5,0.5,0.9c0.1,0.3,0.1,0.6,0.1,0.9c0,0.3-0.1,0.5-0.3,0.8c-0.2,0.2-0.3,0.4-0.5,0.6c-0.2,0.2-0.4,0.4-0.7,0.5
			c-0.3,0.2-0.6,0.3-0.8,0.4c-0.2,0.1-0.5,0.2-0.9,0.3c-0.4,0.1-0.6,0.2-0.8,0.3c-0.2,0.1-0.4,0.1-0.8,0.2c-0.3,0.1-0.5,0.1-0.6,0.1
			L24.8,20.5L24.8,20.5L24.8,20.5z M34.8,30c0,0.3-0.1,0.5-0.2,0.8c-0.1,0.2-0.3,0.5-0.5,0.7c-0.2,0.2-0.5,0.4-0.7,0.6
			c-0.2,0.2-0.5,0.3-0.9,0.5c-0.3,0.2-0.6,0.3-0.9,0.4c-0.3,0.1-0.6,0.2-1,0.3c-0.4,0.1-0.7,0.2-0.9,0.3c-0.2,0.1-0.5,0.1-0.8,0.2
			c-0.3,0.1-0.5,0.1-0.6,0.2L27,29c-0.1-0.4,0.1-0.9,0.6-1l0,0c0.4-0.1,0.8-0.2,1.1-0.3c0.3-0.1,0.7-0.2,1.2-0.3
			c0.5-0.1,0.9-0.2,1.3-0.2c0.3,0,0.7,0,1.2,0c0.4,0,0.8,0.1,1.1,0.2c0.3,0.1,0.6,0.3,0.8,0.6c0.2,0.3,0.4,0.6,0.5,1
			C34.8,29.4,34.8,29.7,34.8,30z"/>
	</g>
	<circle class="st0" cx="27" cy="27" r="26"/>
	<path class="st0" d="M21.7,6.5C10.4,9.4,3.6,21,6.5,32.3S21,50.4,32.3,47.5"/>
</g>
</svg>
