<?xml version="1.0" encoding="utf-8"?>
<!-- Generator: Adobe Illustrator 23.0.1, SVG Export Plug-In . SVG Version: 6.00 Build 0)  -->
<!DOCTYPE svg PUBLIC "-//W3C//DTD SVG 1.1//EN" "http://www.w3.org/Graphics/SVG/1.1/DTD/svg11.dtd" [
	<!ENTITY ns_extend "http://ns.adobe.com/Extensibility/1.0/">
	<!ENTITY ns_ai "http://ns.adobe.com/AdobeIllustrator/10.0/">
	<!ENTITY ns_graphs "http://ns.adobe.com/Graphs/1.0/">
	<!ENTITY ns_vars "http://ns.adobe.com/Variables/1.0/">
	<!ENTITY ns_imrep "http://ns.adobe.com/ImageReplacement/1.0/">
	<!ENTITY ns_sfw "http://ns.adobe.com/SaveForWeb/1.0/">
	<!ENTITY ns_custom "http://ns.adobe.com/GenericCustomNamespace/1.0/">
	<!ENTITY ns_adobe_xpath "http://ns.adobe.com/XPath/1.0/">
]>
<svg version="1.1" id="Layer_1" width="49px" height="42px" xmlns:x="&ns_extend;" xmlns:i="&ns_ai;" xmlns:graph="&ns_graphs;"
	 xmlns="http://www.w3.org/2000/svg" xmlns:xlink="http://www.w3.org/1999/xlink" x="0px" y="0px" viewBox="0 0 70 54"
	 style="enable-background:new 0 0 70 54;" xml:space="preserve">
<style type="text/css">
	.st0{fill:none;stroke:#808080;stroke-linecap:round;stroke-linejoin:round;stroke-miterlimit:10;}
</style>
<metadata>
	<sfw  xmlns="&ns_sfw;">
		<slices></slices>
		<sliceSourceBounds  bottomLeftOrigin="true" height="53.1" width="69" x="0.5" y="0.4"></sliceSourceBounds>
	</sfw>
</metadata>
<g>
	<g>
		<path class="st0" d="M54.9,53c0.5-1.5,0.6-2.8,0.6-4.7c-0.1-3.7-0.9-6.4-2.7-8.2c-1.1-1.1-2.4-1.9-4-2.5c-1.2-0.4-1.6-2-0.8-3
			c1.7-2.2,2.2-5,1.5-8.4c-0.3-1.7-1-3.1-1.9-4.3s-2.1-2.1-3.5-2.7s-3-1-4.6-1.3c-1.2-0.2-2.5-0.3-3.9-0.3c-0.9,0-1.7-0.7-1.8-1.7
			l-0.7-6.3c-0.1-1-1-1.8-2.1-1.7l-2.3,0.2c-1,0.1-1.8,1-1.7,2.1l0.6,5.9c0.1,1-0.6,2-1.6,2.1c-0.3,0-0.6,0.1-1,0.1
			c-1,0.1-2-0.6-2.1-1.7l-0.6-5.9c-0.1-1-1-1.8-2.1-1.7L18,9.4c-1,0.1-1.8,1-1.7,2.1l0.7,6.1c0.1,1-0.6,2-1.6,2.1
			c-0.6,0.1-1.2,0.1-1.9,0.2l-6.4,0.7c-1,0.1-1.8,1-1.7,2.1l0.3,2.7c0.1,1,1,1.8,2.1,1.7l2.5-0.3c2-0.2,3.2,0.5,3.8,2.3l2.6,24
			 M24.1,25.6c0.2,0,0.7-0.1,1.5-0.2s1.5-0.2,2.1-0.3c0.6,0,1.3-0.1,2.3-0.1s1.8,0,2.4,0c0.7,0.1,1.4,0.2,2.2,0.4
			c0.8,0.2,1.5,0.5,2,0.9s1,0.9,1.4,1.5s0.6,1.4,0.7,2.2c0.1,0.7,0,1.4-0.1,2c-0.2,0.6-0.5,1.2-0.9,1.6c-0.4,0.5-0.9,0.9-1.3,1.2
			c-0.5,0.4-1.1,0.7-1.8,0.9c-0.7,0.3-1.4,0.5-2,0.7s-1.3,0.3-2.1,0.5c-0.9,0.1-1.5,0.2-1.9,0.3s-1,0.1-1.8,0.2
			c-0.8,0.1-1.2,0.1-1.3,0.1L24.1,25.6L24.1,25.6L24.1,25.6z M27.1,53l-0.8-7.5c-0.1-1,0.6-1.9,1.6-2.1l0,0c1-0.1,1.9-0.2,2.5-0.3
			s1.5-0.1,2.7-0.2c1.2,0,2.1,0,2.9,0c0.8,0.1,1.7,0.2,2.6,0.4c1,0.2,1.7,0.5,2.4,0.9c0.6,0.4,1.2,1,1.6,1.6
			c0.5,0.7,0.8,1.5,0.9,2.4c0.1,0.7,0,1.4-0.2,2s-0.4,1.2-0.8,1.7c-0.2,0.2-0.4,0.5-0.6,0.7"/>
	</g>
	<polyline class="st0" points="54.1,41.9 63.5,41.9 69,53 1,53 5.4,41.9 14.9,41.9 	"/>
	<path class="st0" d="M61.5,7.7h-3.6c-0.5,0-1-0.4-1-1V3.1c0-0.9-0.6-1.8-1.5-2c-1.3-0.4-2.5,0.7-2.5,1.9v3.7c0,0.5-0.4,1-1,1h-3.6
		c-0.9,0-1.8,0.6-2,1.5c-0.4,1.3,0.6,2.6,1.9,2.6h3.7c0.5,0,1,0.4,1,1v3.6c0,0.9,0.6,1.8,1.5,2c1.3,0.4,2.5-0.7,2.5-1.9v-3.7
		c0-0.5,0.4-1,1-1h3.7c1.3,0,2.3-1.2,1.9-2.6C63.2,8.3,62.4,7.7,61.5,7.7z"/>
</g>
</svg>
