<?xml version="1.0" encoding="utf-8"?>
<!-- Generator: Adobe Illustrator 23.0.1, SVG Export Plug-In . SVG Version: 6.00 Build 0)  -->
<!DOCTYPE svg PUBLIC "-//W3C//DTD SVG 1.1//EN" "http://www.w3.org/Graphics/SVG/1.1/DTD/svg11.dtd" [
	<!ENTITY ns_extend "http://ns.adobe.com/Extensibility/1.0/">
	<!ENTITY ns_ai "http://ns.adobe.com/AdobeIllustrator/10.0/">
	<!ENTITY ns_graphs "http://ns.adobe.com/Graphs/1.0/">
	<!ENTITY ns_vars "http://ns.adobe.com/Variables/1.0/">
	<!ENTITY ns_imrep "http://ns.adobe.com/ImageReplacement/1.0/">
	<!ENTITY ns_sfw "http://ns.adobe.com/SaveForWeb/1.0/">
	<!ENTITY ns_custom "http://ns.adobe.com/GenericCustomNamespace/1.0/">
	<!ENTITY ns_adobe_xpath "http://ns.adobe.com/XPath/1.0/">
]>
<svg version="1.1" id="Layer_1" width="41px" height="41px" xmlns:x="&ns_extend;" xmlns:i="&ns_ai;" xmlns:graph="&ns_graphs;"
	 xmlns="http://www.w3.org/2000/svg" xmlns:xlink="http://www.w3.org/1999/xlink" x="0px" y="0px" viewBox="0 0 57 54"
	 style="enable-background:new 0 0 57 54;" xml:space="preserve">
<style type="text/css">
	.st0{fill:none;stroke:#808080;stroke-linecap:round;stroke-linejoin:round;stroke-miterlimit:10;}
</style>
<metadata>
	<sfw  xmlns="&ns_sfw;">
		<slices></slices>
		<sliceSourceBounds  bottomLeftOrigin="true" height="53" width="56" x="0.5" y="0.5"></sliceSourceBounds>
	</sfw>
</metadata>
<g>
	<g>
		<path class="st0" d="M19.1,19.2H19v-1.3c0-2.6-2.1-4.8-4.7-4.8s-4.7,2.1-4.7,4.8v1.3c-0.7,0-1.2,0.5-1.2,1.2v1.1
			c0,0.7,0.5,1.2,1.2,1.2v0.4c0,2.6,2.1,4.8,4.7,4.8s4.7-2.1,4.7-4.8v-0.4h0.1c0.7,0,1.2-0.5,1.2-1.2v-1.1
			C20.3,19.7,19.7,19.2,19.1,19.2z"/>
		<path class="st0" d="M21.8,29.9c-0.2-0.1-0.5-0.2-0.7-0.4c-1.6,2.2-4,3.6-6.8,3.6S9,31.7,7.5,29.5c-3.3,1.7-6,3.2-6.5,8"/>
	</g>
	<g>
		<path class="st0" d="M47.5,19.2L47.5,19.2l-0.1-1.3c0-2.6-2.1-4.8-4.7-4.8c-2.6,0-4.7,2.1-4.7,4.8v1.3c-0.7,0-1.2,0.5-1.2,1.2v1.1
			c0,0.7,0.5,1.2,1.2,1.2v0.4c0,2.6,2.1,4.8,4.7,4.8c2.6,0,4.7-2.1,4.7-4.8v-0.4h0.1c0.7,0,1.2-0.5,1.2-1.2v-1.1
			C48.7,19.7,48.1,19.2,47.5,19.2z"/>
		<path class="st0" d="M56,37.5c-0.7-4.4-3.2-6.3-6.5-8c-1.6,2.2-4,3.6-6.8,3.6s-5.3-1.4-6.8-3.6c-0.4,0.2-0.8,0.4-1.2,0.6"/>
	</g>
	<g>
		<path class="st0" d="M34.7,29.7C34.6,29.7,34.6,29.7,34.7,29.7l-0.1-1.4c0-3.5-2.8-6.3-6.3-6.3c-3.4,0-6.3,2.8-6.3,6.3v1.4
			c-0.9,0-1.6,0.7-1.6,1.6v1.4c0,0.9,0.7,1.6,1.6,1.6v0.5c0,3.5,2.8,6.3,6.3,6.3c3.4,0,6.3-2.8,6.3-6.3v-0.5c0.1,0,0.1,0,0.1,0
			c0.9,0,1.6-0.7,1.6-1.6v-1.4C36.3,30.4,35.6,29.7,34.7,29.7z"/>
		<path class="st0" d="M45.7,53c-0.9-5.8-4-10.3-8.3-12.5c-2.1,2.9-5.3,4.8-9,4.8s-7-1.9-9-4.8C15,42.7,11.7,46.7,11,53"/>
	</g>
	<g>
		<path class="st0" d="M32.2,6C32.1,6,32.1,6,32.2,6l-0.1-1.2c0-2.1-1.7-3.8-3.7-3.8c-2.1,0-3.7,1.7-3.7,3.8V6c-0.5,0-1,0.4-1,1v0.9
			c0,0.5,0.4,1,1,1V9c0,2.1,1.7,3.8,3.7,3.8c2.1,0,3.7-1.7,3.7-3.8V8.7h0.1c0.5,0,1-0.4,1-1V6.9C33.1,6.4,32.7,6,32.2,6z"/>
		<path class="st0" d="M37.6,18.2c-0.7-2-1.9-3.1-3.8-4c-1.2,1.7-3.2,2.8-5.4,2.8s-4.2-1.1-5.4-2.8c-1.9,1-3.2,1.9-3.9,3.9"/>
	</g>
</g>
</svg>
