<?xml version="1.0" encoding="utf-8"?>
<!-- Generator: Adobe Illustrator 23.0.1, SVG Export Plug-In . SVG Version: 6.00 Build 0)  -->
<!DOCTYPE svg PUBLIC "-//W3C//DTD SVG 1.1//EN" "http://www.w3.org/Graphics/SVG/1.1/DTD/svg11.dtd" [
	<!ENTITY ns_extend "http://ns.adobe.com/Extensibility/1.0/">
	<!ENTITY ns_ai "http://ns.adobe.com/AdobeIllustrator/10.0/">
	<!ENTITY ns_graphs "http://ns.adobe.com/Graphs/1.0/">
	<!ENTITY ns_vars "http://ns.adobe.com/Variables/1.0/">
	<!ENTITY ns_imrep "http://ns.adobe.com/ImageReplacement/1.0/">
	<!ENTITY ns_sfw "http://ns.adobe.com/SaveForWeb/1.0/">
	<!ENTITY ns_custom "http://ns.adobe.com/GenericCustomNamespace/1.0/">
	<!ENTITY ns_adobe_xpath "http://ns.adobe.com/XPath/1.0/">
]>
<svg version="1.1" id="Layer_1" width="34px" height="42px" xmlns:x="&ns_extend;" xmlns:i="&ns_ai;" xmlns:graph="&ns_graphs;"
	 xmlns="http://www.w3.org/2000/svg" xmlns:xlink="http://www.w3.org/1999/xlink" x="0px" y="0px" viewBox="0 0 44 54"
	 style="enable-background:new 0 0 44 54;" xml:space="preserve">
<style type="text/css">
	.st0{fill:none;stroke:#808080;stroke-linecap:round;stroke-linejoin:round;stroke-miterlimit:10;}
</style>
<metadata>
	<sfw  xmlns="&ns_sfw;">
		<slices></slices>
		<sliceSourceBounds  bottomLeftOrigin="true" height="53" width="43" x="0.5" y="0.5"></sliceSourceBounds>
	</sfw>
</metadata>
<g>
	<path class="st0" d="M42.9,10.4c0-1.7-1.4-3.1-3.1-3.1H4.2c-1.7,0-3.1,1.4-3.1,3.1c0,10.4-1.5,24.6,6.7,32.9c6,6,14.2,9.7,14.2,9.7
		s8.2-3.7,14.2-9.7C44.4,35,42.9,20.8,42.9,10.4z"/>
	<path class="st0" d="M38.1,7.3c0-0.8,0-3.1,0-3.8C38,2.1,37,1,35.7,1H8.3C7,1,6,2.1,6,3.4c0,0.8,0,3,0,3.9"/>
	<path class="st0" d="M29.6,24.9H25l3.1-5.6c0.6-1-0.2-2.3-1.3-2.3h-7.1c-0.8,0-1.5,0.4-1.9,1.1l-3.5,10.2C14,29,14.5,30,15.4,30
		h4.2l-3.2,8.5c-0.3,0.6,0.4,1.2,0.9,0.8l13-12.6C31,26.1,30.6,24.9,29.6,24.9z"/>
</g>
</svg>
