<?xml version="1.0" encoding="utf-8"?>
<!-- Generator: Adobe Illustrator 23.1.0, SVG Export Plug-In . SVG Version: 6.00 Build 0)  -->
<svg version="1.1" id="Layer_1" xmlns="http://www.w3.org/2000/svg" xmlns:xlink="http://www.w3.org/1999/xlink" x="0px" y="0px"
	 viewBox="0 0 124 24" style="enable-background:new 0 0 124 24;" xml:space="preserve">
<style type="text/css">
	.st0{fill:#454C59;}
	.st1{fill:#00A5EF;}
</style>
<path class="st0" d="M91.5,2v10.3c0,3.6,1.5,5,4.1,5s4.1-1.5,4.1-5V2h4.3v10.4c0,5.5-3.1,8.5-8.4,8.5c-5.2,0-8.4-3-8.4-8.5V2L91.5,2
	z M31.7,2L40,20.6h-4.5l-1.7-4h-8.6l-1.7,4h-4.4L27.4,2L31.7,2z M81.4,2v3.5h-9.7v4.9h8.5v3.5h-8.5v6.8h-4.3V2L81.4,2z M114.2,2
	v15.1h9.7v3.5h-14V2L114.2,2z M8.3,2c4.9,0,8.1,2.5,8.1,6.8c0,4.1-3.1,6.7-8.1,6.7H4.5v5.2H0.2V2L8.3,2z M55.3,11.9l6.3,8.7h-4.1
	c-0.6,0-1.2-0.2-1.6-0.7l-0.1-0.1l-2.3-3.2c-0.5-0.8-0.5-1.8,0-2.6l0.1-0.2L55.3,11.9z M29.5,6.3l-2.9,7.1h5.9L29.5,6.3z M8.1,5.5
	H4.5V12H8c2.7,0,4-1.2,4-3.2S10.7,5.5,8.1,5.5z M47.1,2c0.7,0,1.2,0.2,1.6,0.7l0.1,0.1L50,4.5c0.5,0.7,0.5,1.7,0.1,2.4L50,7
	l-1.7,2.4l-5.4-7.5L47.1,2z"/>
<path class="st1" d="M63.3,0.3L41.7,23.5c-0.2,0.3-0.7-0.1-0.4-0.4l15.6-22c0.4-0.5,1-0.8,1.7-0.8L63.3,0.3z"/>
</svg>
