<svg fill="none" height="48" viewBox="0 0 48 48" width="48" xmlns="http://www.w3.org/2000/svg">
    <defs>
        <g id="buyIcon">
            <circle cx="14" cy="27" fill="#623590" r="11"/><path d="m14 35c-4.4 0-8-3.6-8-8s3.6-8 8-8 8 3.6 8 8-3.6 8-8 8zm0-14c-3.3 0-6 2.7-6 6s2.7 6 6 6 6-2.7 6-6-2.7-6-6-6z" fill="#fff"/><circle cx="34" cy="11" fill="#623590" r="11"/><path d="m34 19c-4.4 0-8-3.6-8-8s3.6-8 8-8 8 3.6 8 8-3.6 8-8 8zm0-14c-3.3 0-6 2.7-6 6s2.7 6 6 6 6-2.7 6-6-2.7-6-6-6z" fill="#fff"/><path clip-rule="evenodd" d="m35.6 47c0 .5-.4 1-1 1s-1-.4-1-1v-17.7l-5.9 5.7c-.4.4-1 .4-1.4 0s-.4-1 0-1.4l7.6-7.4c.2-.2.4-.2.7-.2s.5.1.7.3l7.6 7.4c.4.4.4 1 0 1.4s-1 .4-1.4 0l-5.9-5.7z" fill="#623590" fill-rule="evenodd"/>
        </g>
        <g id="sellIcon">
            <path clip-rule="evenodd" d="m45 11c0 6.1-4.9 11-11 11s-11-4.9-11-11 4.9-11 11-11 11 4.9 11 11zm-20 16c0 6.1-4.9 11-11 11s-11-4.9-11-11 4.9-11 11-11 11 4.9 11 11zm9.6-1c.6 0 1 .4 1 1v17.7l5.9-5.7c.4-.4 1-.4 1.4 0s.4 1 0 1.4l-7.6 7.4c-.2.2-.4.3-.7.3s-.5-.1-.7-.2l-7.6-7.4c-.4-.4-.4-1 0-1.4s1-.4 1.4 0l5.9 5.7v-17.8c0-.6.5-1 1-1z" fill="#623590" fill-rule="evenodd"/><g fill="#fff"><path d="m14 35c-4.4 0-8-3.6-8-8s3.6-8 8-8 8 3.6 8 8-3.6 8-8 8zm0-14c-3.3 0-6 2.7-6 6s2.7 6 6 6 6-2.7 6-6-2.7-6-6-6z"/><path d="m34 19c-4.4 0-8-3.6-8-8s3.6-8 8-8 8 3.6 8 8-3.6 8-8 8zm0-14c-3.3 0-6 2.7-6 6s2.7 6 6 6 6-2.7 6-6-2.7-6-6-6z"/></g>
        </g>
        <g id="createOfferIcon">
            <path d="m3 .5h30c1.4 0 2.5 1.1 2.5 2.5v36c0 1.4-1.1 2.5-2.5 2.5h-30c-1.4 0-2.5-1.1-2.5-2.5v-36c0-1.4 1.1-2.5 2.5-2.5z" fill="#fff"/><path clip-rule="evenodd" d="m6 11c0-.6.4-1 1-1h22c.6 0 1 .4 1 1s-.4 1-1 1h-22c-.6 0-1-.4-1-1zm0 10c0-.6.4-1 1-1h22c.6 0 1 .4 1 1s-.4 1-1 1h-22c-.6 0-1-.4-1-1zm1 9c-.6 0-1 .4-1 1s.4 1 1 1h13c.6 0 1-.4 1-1s-.4-1-1-1z" fill="#d3c7e0" fill-rule="evenodd"/><path d="m38 28c-.7 0-1.4.1-2 .2v-25.2c0-1.7-1.3-3-3-3h-30c-1.7 0-3 1.3-3 3v36c0 1.7 1.3 3 3 3h25.8c1.5 3.5 5.1 6 9.2 6 5.5 0 10-4.5 10-10s-4.5-10-10-10zm-35 13c-1.1 0-2-.9-2-2v-36c0-1.1.9-2 2-2h30c1.1 0 2 .9 2 2v25.5c-4.1 1.3-7 5.1-7 9.5 0 1 .2 2.1.5 3z" fill="#623590"/><path clip-rule="evenodd" d="m38 32c-.6 0-1 .4-1 1v4h-4c-.6 0-1 .4-1 1s.4 1 1 1h4v4c0 .6.4 1 1 1s1-.4 1-1v-4h4c.6 0 1-.4 1-1s-.4-1-1-1h-4v-4c0-.6-.4-1-1-1z" fill="#fff" fill-rule="evenodd"/>
        </g>
        <g id="classicDashboardIcon">
            <path d="m3 .5h42c1.4 0 2.5 1.1 2.5 2.5v42c0 1.4-1.1 2.5-2.5 2.5h-42c-1.4 0-2.5-1.1-2.5-2.5v-42c0-1.4 1.1-2.5 2.5-2.5z" fill="#fff"/><path d="m45 48h-42c-1.7 0-3-1.3-3-3v-42c0-1.7 1.3-3 3-3h42c1.7 0 3 1.3 3 3v42c0 1.7-1.3 3-3 3zm-42-47c-1.1 0-2 .9-2 2v42c0 1.1.9 2 2 2h42c1.1 0 2-.9 2-2v-42c0-1.1-.9-2-2-2z" fill="#623590"/><path clip-rule="evenodd" d="m27 8c-.6 0-1 .4-1 1v24c0 .6.4 1 1 1s1-.4 1-1v-24c0-.6-.4-1-1-1zm-18 9c-.6 0-1 .4-1 1v15c0 .6.4 1 1 1s1-.4 1-1v-15c0-.6-.4-1-1-1zm6 6c-.6 0-1 .4-1 1v9c0 .6.4 1 1 1s1-.4 1-1v-9c0-.6-.4-1-1-1zm5-5c0-.6.4-1 1-1s1 .4 1 1v15c0 .6-.4 1-1 1s-1-.4-1-1zm12-3c0-.6.4-1 1-1s1 .4 1 1v18c0 .6-.4 1-1 1s-1-.4-1-1zm7-7c-.6 0-1 .4-1 1v24c0 .6.4 1 1 1s1-.4 1-1v-24c0-.6-.4-1-1-1z" fill="#d3c7e0" fill-rule="evenodd"/><g fill="#623590"><circle cx="9" cy="39" r="1"/><circle cx="15" cy="39" r="1"/><circle cx="21" cy="39" r="1"/><circle cx="27" cy="39" r="1"/><circle cx="33" cy="39" r="1"/><circle cx="39" cy="39" r="1"/></g>
        </g>
        <g id="vendorDashboardIcon">
            <path d="m44.5 45.4c0 .3-.1.6-.2.8-.1.3-.3.5-.5.7s-.4.4-.7.5-.5.2-.8.2h-36.7c-.6 0-1.1-.2-1.5-.6s-.6-.9-.6-1.5v-32.9c0-.6.2-1.1.6-1.5s.9-.6 1.5-.6h36.7c.6 0 1.1.2 1.5.6s.6.9.6 1.5v32.8z" fill="#fff"/><path clip-rule="evenodd" d="m24 24c-.6 0-1 .4-1 1v14c0 .6.4 1 1 1s1-.4 1-1v-14c0-.6-.4-1-1-1zm-7 5c0-.6.4-1 1-1s1 .4 1 1v10c0 .6-.4 1-1 1s-1-.4-1-1zm-6 4c0-.6.4-1 1-1s1 .4 1 1v6c0 .6-.4 1-1 1s-1-.4-1-1zm18-4c0-.6.4-1 1-1s1 .4 1 1v10c0 .6-.4 1-1 1s-1-.4-1-1zm7-5c-.6 0-1 .4-1 1v14c0 .6.4 1 1 1s1-.4 1-1v-14c0-.6-.4-1-1-1z" fill="#d3c7e0" fill-rule="evenodd"/><path d="m47.5 12.1-4.7-10.3c-.2-.5-.6-1-1.1-1.3s-1-.5-1.6-.5h-32.2c-.5 0-1.1.2-1.6.5s-.9.7-1.1 1.3l-4.7 10.3c-.3.7-.5 1.6-.5 2.4v1.7c0 1.3.5 2.5 1.4 3.4.5.5 1 .8 1.6 1.1v24.7c0 .7.3 1.3.8 1.8s1.1.8 1.8.8h36.7c.3 0 .7-.1 1-.2s.6-.3.9-.6c.2-.2.4-.5.6-.9s.2-.7.2-1v-24.7c.6-.2 1.1-.6 1.6-1.1.9-.9 1.4-2.1 1.4-3.4v-1.7c0-.7-.2-1.6-.5-2.3zm-3.5 33.3c0 .2 0 .4-.1.6s-.2.4-.4.5c-.2.2-.3.3-.5.4s-.4.1-.6.1h-36.8c-.4 0-.8-.2-1.1-.5s-.5-.7-.5-1.1v-24.5c.3.1.5.1.8.1 1.3 0 2.5-.5 3.4-1.4s1.4-2.1 1.4-3.4c0 1.3.5 2.5 1.4 3.4s2.1 1.4 3.4 1.4 2.5-.5 3.4-1.4 1.4-2.1 1.4-3.4c0 1.3.5 2.5 1.4 3.4s2.1 1.4 3.4 1.4 2.5-.5 3.4-1.4 1.4-2.1 1.4-3.4c0 .6.1 1.3.4 1.8.2.6.6 1.1 1 1.6.4.4 1 .8 1.6 1s1.2.4 1.8.4c1.3 0 2.5-.5 3.4-1.4s1.4-2.1 1.4-3.4c0 .6.1 1.3.4 1.8.2.6.6 1.1 1 1.6.4.4 1 .8 1.6 1s1.2.4 1.8.4c.3 0 .5 0 .8-.1z" fill="#623590"/>
        </g>
        <g id="affiliateDashboardIcon">
            <path d="m3 .5h42c1.4 0 2.5 1.1 2.5 2.5v42c0 1.4-1.1 2.5-2.5 2.5h-42c-1.4 0-2.5-1.1-2.5-2.5v-42c0-1.4 1.1-2.5 2.5-2.5z" fill="#fff"/><path d="m45 48h-42c-1.7 0-3-1.3-3-3v-42c0-1.7 1.3-3 3-3h42c1.7 0 3 1.3 3 3v42c0 1.7-1.3 3-3 3zm-42-47c-1.1 0-2 .9-2 2v42c0 1.1.9 2 2 2h42c1.1 0 2-.9 2-2v-42c0-1.1-.9-2-2-2z" fill="#623590"/><g fill="#d3c7e0"><path clip-rule="evenodd" d="m24 13c.6 0 1 .4 1 1v3c0 .6-.4 1-1 1s-1-.4-1-1v-3c0-.6.4-1 1-1zm-5.3 2.1c.4-.4.4-1 0-1.4s-1-.4-1.4 0l-2.6 2.6c-.4.4-.4 1 0 1.4s1 .4 1.4 0zm10.6 0c-.4-.4-.4-1 0-1.4s1-.4 1.4 0l2.6 2.6c.4.4.4 1 0 1.4s-1 .4-1.4 0zm-21.3 13.9c0-.6.4-1 1-1s1 .4 1 1v7c0 .6-.4 1-1 1s-1-.4-1-1zm6 0c0-.6.4-1 1-1s1 .4 1 1v7c0 .6-.4 1-1 1s-1-.4-1-1zm7-1c-.6 0-1 .4-1 1v7c0 .6.4 1 1 1s1-.4 1-1v-7c0-.6-.4-1-1-1zm5 1c0-.6.4-1 1-1s1 .4 1 1v7c0 .6-.4 1-1 1s-1-.4-1-1zm7-1c-.6 0-1 .4-1 1v7c0 .6.4 1 1 1s1-.4 1-1v-7c0-.6-.4-1-1-1zm5 1c0-.6.4-1 1-1s1 .4 1 1v7c0 .6-.4 1-1 1s-1-.4-1-1z" fill-rule="evenodd"/><circle cx="9" cy="42" r="1"/><circle cx="15" cy="42" r="1"/><circle cx="21" cy="42" r="1"/><circle cx="27" cy="42" r="1"/><circle cx="33" cy="42" r="1"/><circle cx="39" cy="42" r="1"/></g><path clip-rule="evenodd" d="m24 11c1.7 0 3-1.3 3-3s-1.3-3-3-3-3 1.3-3 3 1.3 3 3 3zm0 15c1.7 0 3-1.3 3-3s-1.3-3-3-3-3 1.3-3 3 1.3 3 3 3zm-10-3c0 1.7-1.3 3-3 3s-3-1.3-3-3 1.3-3 3-3 3 1.3 3 3zm23 3c1.7 0 3-1.3 3-3s-1.3-3-3-3-3 1.3-3 3 1.3 3 3 3z" fill="#623590" fill-rule="evenodd"/>
        </g>
        <g id="kioskDashboardIcon">
            <path d="m3 .5h42c1.4 0 2.5 1.1 2.5 2.5v33c0 1.4-1.1 2.5-2.5 2.5h-42c-1.4 0-2.5-1.1-2.5-2.5v-33c0-1.4 1.1-2.5 2.5-2.5z" fill="#fff"/><path d="m45 0h-42c-1.7 0-3 1.3-3 3v33c0 1.7 1.3 3 3 3h6v6c0 1.7 1.3 3 3 3h24c1.7 0 3-1.3 3-3v-6h6c1.7 0 3-1.3 3-3v-33c0-1.7-1.3-3-3-3zm2 36c0 1.1-.9 2-2 2h-42c-1.1 0-2-.9-2-2v-33c0-1.1.9-2 2-2h42c1.1 0 2 .9 2 2z" fill="#623590"/><g fill="#d3c7e0"><path clip-rule="evenodd" d="m28 15c0-.6-.4-1-1-1s-1 .4-1 1v15c0 .6.4 1 1 1s1-.4 1-1zm-8 5c0-.6.4-1 1-1s1 .4 1 1v10c0 .6-.4 1-1 1s-1-.4-1-1zm-10 2c0-.6-.4-1-1-1s-1 .4-1 1v8c0 .6.4 1 1 1s1-.4 1-1zm6 0c0-.6-.4-1-1-1s-1 .4-1 1v8c0 .6.4 1 1 1s1-.4 1-1zm16-3c0-.6.4-1 1-1s1 .4 1 1v11c0 .6-.4 1-1 1s-1-.4-1-1zm8-4c0-.6-.4-1-1-1s-1 .4-1 1v15c0 .6.4 1 1 1s1-.4 1-1z" fill-rule="evenodd"/><path d="m9 8h12c.6 0 1 .4 1 1 0 .6-.4 1-1 1h-12c-.6 0-1-.4-1-1 0-.6.4-1 1-1z"/></g>
        </g>
        <g id="merchantDashboardIcon">
            <path d="m41.6 30.5h-29.9l-4.1-22h37.3c.4 0 .7.1 1.1.2.3.2.6.4.9.7l.4-.3-.4.3c.2.3.4.6.5 1s.1.8 0 1.1l-3.4 16.9c-.1.6-.4 1.1-.9 1.5-.4.4-.9.6-1.5.6z" fill="#fff"/><path clip-rule="evenodd" d="m28 12c-.6 0-1 .4-1 1v13c0 .6.4 1 1 1s1-.4 1-1v-13c0-.6-.4-1-1-1zm-13 4c0-.6.4-1 1-1s1 .4 1 1v10c0 .6-.4 1-1 1s-1-.4-1-1zm6 2c0-.6.4-1 1-1s1 .4 1 1v8c0 .6-.4 1-1 1s-1-.4-1-1zm12 2c0-.6.4-1 1-1s1 .4 1 1v6c0 .6-.4 1-1 1s-1-.4-1-1zm7-8c-.6 0-1 .4-1 1v13c0 .6.4 1 1 1s1-.4 1-1v-13c0-.6-.4-1-1-1z" fill="#d3c7e0" fill-rule="evenodd"/><g fill="#623590"><path d="m47.9 10.3c-.1-.3-.2-.6-.3-.8l-.2-.3s-.1-.1-.1-.1-.1-.1-.1-.1l-.2-.3c-.2-.2-.5-.3-.7-.5-.5-.1-.9-.2-1.4-.2h-37l-.9-5.2c-.1-.5-.5-.8-1-.8h-5c-.6 0-1 .4-1 1s.4 1 1 1h4.2l5.8 32.2c.1.5.5.8 1 .8h30.3c.6 0 1-.4 1-1s-.4-1-1-1h-29.5l-.7-4h29.5c.7 0 1.3-.2 1.9-.7.5-.4.9-1.1 1-1.8l3.4-16.9v-.1c.1-.3.1-.8 0-1.2zm-.9 1.2-3.4 16.9c-.1.5-.3.9-.7 1.2s-.8.5-1.3.5h-29.5l-3.9-21.1h36.8c.3 0 .6.1.9.2s.5.3.7.6c.2.2.3.5.4.8z"/><circle cx="15" cy="43" r="3"/><circle cx="38" cy="43" r="3"/></g>
        </g>
        <g id="signInIcon">
            <g clip-rule="evenodd" fill-rule="evenodd"><path d="m7 12.1v-3.1c0-5 4-9 9-9s9 4 9 9v3.1c1.9 2.1 3 4.9 3 7.9 0 6.6-5.4 12-12 12s-12-5.4-12-12c0-3 1.1-5.8 3-7.9zm15-2.5v-.6c0-3.3-2.7-6-6-6s-6 2.7-6 6v.6c1.8-1 3.8-1.6 6-1.6s4.2.6 6 1.6z" fill="#623590"/><path d="m17 20.8c1.2-.4 2-1.5 2-2.8 0-1.7-1.3-3-3-3s-3 1.3-3 3c0 1.3.8 2.4 2 2.8v2.2c0 .6.4 1 1 1s1-.4 1-1z" fill="#efebf4"/></g>
        </g>
        <g id="binanceTrading" fill="#f3ba2f">
            <path d="m14.6 20.2 9.3-9.3 9.3 9.3 5.4-5.4-14.7-14.8-14.7 14.7z"/><path d="m10.8 24-5.4-5.4-5.4 5.4 5.4 5.4z"/><path d="m14.6 27.8 9.3 9.3 9.3-9.3 5.4 5.4-14.7 14.8-14.7-14.7z"/><path d="m42.4 29.4 5.4-5.4-5.4-5.4-5.4 5.4z"/><path d="m29.4 24-5.5-5.5-4 4.1-.5.4-1 1 5.5 5.5z"/>
        </g>
        <g id="createAccountIcon">
            <path d="m12.3 17.4c3.4 0 6.2-2.8 6.2-6.2s-2.8-6.2-6.2-6.2-6.2 2.8-6.2 6.2c0 3.5 2.8 6.2 6.2 6.2z" fill="#623590"/><path d="m12.3 19.5c-2.5 0-4.9.6-7.1 1.8s-4 3-5.2 5.1c1.5 1.7 3.4 3.1 5.6 4.1 2.1.9 4.4 1.4 6.7 1.4s4.6-.5 6.7-1.5 4-2.3 5.5-4.1c-1.3-2.1-3.1-3.8-5.2-5s-4.5-1.8-7-1.8z" fill="#623590"/><circle cx="24" cy="8" fill="#efebf4" r="8"/><path clip-rule="evenodd" d="m24 4c-.6 0-1 .4-1 1v2h-2c-.6 0-1 .4-1 1s.4 1 1 1h2v2c0 .6.4 1 1 1s1-.4 1-1v-2h2c.6 0 1-.4 1-1s-.4-1-1-1h-2v-2c0-.6-.4-1-1-1z" fill="#623590" fill-rule="evenodd"/>
        </g>
    </defs>
</svg>