<?xml version="1.0" encoding="utf-8"?>
<!-- Generator: Adobe Illustrator 23.0.1, SVG Export Plug-In . SVG Version: 6.00 Build 0)  -->
<!DOCTYPE svg PUBLIC "-//W3C//DTD SVG 1.1//EN" "http://www.w3.org/Graphics/SVG/1.1/DTD/svg11.dtd" [
	<!ENTITY ns_extend "http://ns.adobe.com/Extensibility/1.0/">
	<!ENTITY ns_ai "http://ns.adobe.com/AdobeIllustrator/10.0/">
	<!ENTITY ns_graphs "http://ns.adobe.com/Graphs/1.0/">
	<!ENTITY ns_vars "http://ns.adobe.com/Variables/1.0/">
	<!ENTITY ns_imrep "http://ns.adobe.com/ImageReplacement/1.0/">
	<!ENTITY ns_sfw "http://ns.adobe.com/SaveForWeb/1.0/">
	<!ENTITY ns_custom "http://ns.adobe.com/GenericCustomNamespace/1.0/">
	<!ENTITY ns_adobe_xpath "http://ns.adobe.com/XPath/1.0/">
]>
<svg version="1.1" id="Layer_1" xmlns:x="&ns_extend;" xmlns:i="&ns_ai;" xmlns:graph="&ns_graphs;"
	 xmlns="http://www.w3.org/2000/svg" xmlns:xlink="http://www.w3.org/1999/xlink" x="0px" y="0px" viewBox="0 0 72 46"
	 style="enable-background:new 0 0 72 46;" xml:space="preserve">
<style type="text/css">
	.st0{fill:#417DC0;}
	.st1{fill:#7ACAEF;}
	.st2{fill:#39AFE8;}
	.st3{fill:#B1E7F8;}
	.st4{fill:#22A6E4;}
</style>
<metadata>
	<sfw  xmlns="&ns_sfw;">
		<slices></slices>
		<sliceSourceBounds  bottomLeftOrigin="true" height="46" width="72" x="0" y="-46"></sliceSourceBounds>
	</sfw>
</metadata>
<g>
	<path class="st0" d="M69.3,46h-55c-1.5,0-2.7-1.2-2.7-2.7V18.1c0-1.5,1.2-2.7,2.7-2.7h55c1.5,0,2.7,1.2,2.7,2.7v25.2
		C72,44.8,70.8,46,69.3,46z"/>
	<path class="st1" d="M63.5,38.6h-55c-1.5,0-2.7-1.2-2.7-2.7V10.6c0-1.5,1.2-2.7,2.7-2.7h55c1.5,0,2.7,1.2,2.7,2.7v25.2
		C66.2,37.3,65,38.6,63.5,38.6z"/>
	<path class="st2" d="M57.8,30.7h-55C1.2,30.7,0,29.5,0,28V2.8C0,1.3,1.2,0,2.7,0h55c1.5,0,2.7,1.2,2.7,2.7V28
		C60.5,29.5,59.3,30.7,57.8,30.7z"/>
	<ellipse class="st3" cx="29.2" cy="15.4" rx="12.6" ry="15.3"/>
	<path class="st4" d="M37.2,19.2c0.6,0.4,0.8,1.1,0.6,1.7c-1.2,2.9-4.6,6.5-8.6,6.5c-4.2,0-7.5-3.5-8.6-6.3c-0.2-0.6,0-1.2,0.6-1.6
		c1.1-0.7,2.6-1.5,3.9-2c0.5-0.2,1.1-0.1,1.4,0.3c0.6,0.5,1.3,1,2.7,1c1.2,0,2.2-0.5,3-1.2c0.4-0.4,1-0.5,1.5-0.3
		C34.9,17.8,36.3,18.5,37.2,19.2z M33.1,10.8c0-3-1.8-5.5-3.9-5.5s-3.9,2.5-3.9,5.5s1.8,5.5,3.9,5.5S33.1,13.8,33.1,10.8z"/>
	<path class="st3" d="M0,22.4V28c0,1.5,1.2,2.8,2.7,2.8h5.5C8.3,26.1,4.6,22.4,0,22.4z M60.5,28v-5.5c-4.6,0-8.3,3.7-8.3,8.3h5.5
		C59.3,30.7,60.5,29.5,60.5,28z"/>
	<path class="st3" d="M0,8.3V2.8C0,1.3,1.2,0,2.7,0h5.5C8.3,4.6,4.6,8.3,0,8.3z M60.5,2.8v5.5c-4.6,0-8.3-3.7-8.3-8.3h5.5
		C59.3,0,60.5,1.3,60.5,2.8z"/>
</g>
</svg>
