<?xml version="1.0" encoding="utf-8"?>
<!-- Generator: Adobe Illustrator 23.0.1, SVG Export Plug-In . SVG Version: 6.00 Build 0)  -->
<!DOCTYPE svg PUBLIC "-//W3C//DTD SVG 1.1//EN" "http://www.w3.org/Graphics/SVG/1.1/DTD/svg11.dtd" [
	<!ENTITY ns_extend "http://ns.adobe.com/Extensibility/1.0/">
	<!ENTITY ns_ai "http://ns.adobe.com/AdobeIllustrator/10.0/">
	<!ENTITY ns_graphs "http://ns.adobe.com/Graphs/1.0/">
	<!ENTITY ns_vars "http://ns.adobe.com/Variables/1.0/">
	<!ENTITY ns_imrep "http://ns.adobe.com/ImageReplacement/1.0/">
	<!ENTITY ns_sfw "http://ns.adobe.com/SaveForWeb/1.0/">
	<!ENTITY ns_custom "http://ns.adobe.com/GenericCustomNamespace/1.0/">
	<!ENTITY ns_adobe_xpath "http://ns.adobe.com/XPath/1.0/">
]>
<svg version="1.1" id="Layer_1" xmlns:x="&ns_extend;" xmlns:i="&ns_ai;" xmlns:graph="&ns_graphs;"
	 xmlns="http://www.w3.org/2000/svg" xmlns:xlink="http://www.w3.org/1999/xlink" x="0px" y="0px" viewBox="0 0 72 52"
	 style="enable-background:new 0 0 72 52;" xml:space="preserve">
<style type="text/css">
	.st0{fill:#7CD4F4;}
	.st1{fill:#22A6E4;}
	.st2{fill:#4EB8EA;}
	.st3{fill:#417DC0;}
</style>
<metadata>
	<sfw  xmlns="&ns_sfw;">
		<slices></slices>
		<sliceSourceBounds  bottomLeftOrigin="true" height="52" width="72" x="0" y="-52"></sliceSourceBounds>
	</sfw>
</metadata>
<g>
	<path class="st0" d="M7.3,17.6H64c1.5,0,2-2.3,0.7-3.2L38.6,0.6c-1.5-0.8-3.1-0.8-4.6,0L6.6,14.4C5.3,15.2,5.8,17.6,7.3,17.6z"/>
	<path class="st1" d="M12,18.5c0,1,0.8,1.9,1.9,1.9H14v0.2v17.2V38h-0.2c-1,0-1.9,0.9-1.9,1.9v1h9.5v-1c0-1-0.8-1.9-1.9-1.9h-0.3
		v-0.2V20.6v-0.2h0.3c1,0,1.9-0.9,1.9-1.9v-1H12V18.5z"/>
	<path class="st1" d="M23.5,18.5c0,1,0.8,1.9,1.9,1.9h0.3v0.2v17.2V38h-0.3c-1,0-1.9,0.9-1.9,1.9v1h9.5v-1c0-1-0.8-1.9-1.9-1.9h-0.3
		v-0.2V20.6v-0.2h0.3c1,0,1.9-0.9,1.9-1.9v-1h-9.5V18.5z"/>
	<path class="st1" d="M36,18.5c0,1,0.8,1.9,1.9,1.9h0.3v0.2v17.2V38h-0.3c-1,0-1.9,0.9-1.9,1.9v1h9.5v-1c0-1-0.8-1.9-1.9-1.9h-0.3
		v-0.2V20.6v-0.2h0.3c1,0,1.9-0.9,1.9-1.9v-1H36V18.5z"/>
	<path class="st1" d="M55.8,20.6v-0.2h0.3c1,0,1.9-0.9,1.9-1.9v-1h-9.5v1c0,1,0.8,1.9,1.9,1.9h0.3v0.2v17.2V38h-0.3
		c-1,0-1.9,0.9-1.9,1.9v1H58v-1c0-1-0.8-1.9-1.9-1.9h-0.3v-0.2V20.6z"/>
	<path class="st2" d="M36.3,0c0.8,0,1.6,0.2,2.3,0.6l26.2,13.8c1.3,0.9,0.8,3.2-0.7,3.2H36.3V0z"/>
	<path class="st3" d="M64.8,43H6.6c-3.9,0-6.8,2.4-6.6,7c0,0.1,0,1.8,0,1.9V52h72v-0.1c0-0.2,0-2,0-2.2C71.7,46,69.3,43,64.8,43z"/>
	<path class="st1" d="M6.6,43h58.2c0.1,0,0.1,0,0.2,0c-0.4-1.2-1.6-2.2-2.9-2.2H9.3c-1.4,0-2.5,0.9-2.9,2.2C6.5,43,6.5,43,6.6,43z"
		/>
</g>
</svg>
