<?xml version="1.0" encoding="utf-8"?>
<!-- Generator: Adobe Illustrator 23.0.1, SVG Export Plug-In . SVG Version: 6.00 Build 0)  -->
<!DOCTYPE svg PUBLIC "-//W3C//DTD SVG 1.1//EN" "http://www.w3.org/Graphics/SVG/1.1/DTD/svg11.dtd" [
	<!ENTITY ns_extend "http://ns.adobe.com/Extensibility/1.0/">
	<!ENTITY ns_ai "http://ns.adobe.com/AdobeIllustrator/10.0/">
	<!ENTITY ns_graphs "http://ns.adobe.com/Graphs/1.0/">
	<!ENTITY ns_vars "http://ns.adobe.com/Variables/1.0/">
	<!ENTITY ns_imrep "http://ns.adobe.com/ImageReplacement/1.0/">
	<!ENTITY ns_sfw "http://ns.adobe.com/SaveForWeb/1.0/">
	<!ENTITY ns_custom "http://ns.adobe.com/GenericCustomNamespace/1.0/">
	<!ENTITY ns_adobe_xpath "http://ns.adobe.com/XPath/1.0/">
]>
<svg version="1.1" id="Layer_1" xmlns:x="&ns_extend;" xmlns:i="&ns_ai;" xmlns:graph="&ns_graphs;"
	 xmlns="http://www.w3.org/2000/svg" xmlns:xlink="http://www.w3.org/1999/xlink" x="0px" y="0px" viewBox="0 0 72 50"
	 style="enable-background:new 0 0 72 50;" xml:space="preserve">
<style type="text/css">
	.st0{fill:#417DC0;}
	.st1{fill:#22A6E4;}
	.st2{fill:#1672BF;}
	.st3{fill:#C4EDF9;}
	.st4{fill:#75D1F2;}
</style>
<metadata>
	<sfw  xmlns="&ns_sfw;">
		<slices></slices>
		<sliceSourceBounds  bottomLeftOrigin="true" height="50" width="72" x="0" y="0"></sliceSourceBounds>
	</sfw>
</metadata>
<g>
	<path class="st0" d="M65.4,50H9.5c-2.4,0-4.3-1.9-4.3-4.3V11.2c0-2.4,1.9-4.3,4.3-4.3h58.2c2.4,0,4.3,1.9,4.3,4.3v32.2
		C72,47,69,50,65.4,50z"/>
	<path class="st1" d="M60.8,41.9H4.2c-2.3,0-4.2-1.9-4.2-4.2V4.2C0,1.9,1.9,0,4.2,0h56.6c2.3,0,4.2,1.9,4.2,4.2v33.6
		C64.9,40.1,63.1,41.9,60.8,41.9z"/>
	<circle class="st2" cx="16.8" cy="16.2" r="9"/>
	<circle class="st3" cx="28.1" cy="16.2" r="9"/>
	<path class="st4" d="M56.1,36.1H38.8c-0.8,0-1.5-0.7-1.5-1.5v0c0-0.8,0.7-1.5,1.5-1.5h17.3c0.8,0,1.5,0.7,1.5,1.5v0
		C57.6,35.4,56.9,36.1,56.1,36.1z"/>
	<path class="st4" d="M18.7,36.1h-7.6c-0.8,0-1.5-0.7-1.5-1.5v0c0-0.8,0.7-1.5,1.5-1.5h7.6c0.8,0,1.5,0.7,1.5,1.5v0
		C20.2,35.4,19.5,36.1,18.7,36.1z"/>
</g>
</svg>
