<?xml version="1.0" encoding="utf-8"?>
<!-- Generator: Adobe Illustrator 23.0.1, SVG Export Plug-In . SVG Version: 6.00 Build 0)  -->
<!DOCTYPE svg PUBLIC "-//W3C//DTD SVG 1.1//EN" "http://www.w3.org/Graphics/SVG/1.1/DTD/svg11.dtd" [
	<!ENTITY ns_extend "http://ns.adobe.com/Extensibility/1.0/">
	<!ENTITY ns_ai "http://ns.adobe.com/AdobeIllustrator/10.0/">
	<!ENTITY ns_graphs "http://ns.adobe.com/Graphs/1.0/">
	<!ENTITY ns_vars "http://ns.adobe.com/Variables/1.0/">
	<!ENTITY ns_imrep "http://ns.adobe.com/ImageReplacement/1.0/">
	<!ENTITY ns_sfw "http://ns.adobe.com/SaveForWeb/1.0/">
	<!ENTITY ns_custom "http://ns.adobe.com/GenericCustomNamespace/1.0/">
	<!ENTITY ns_adobe_xpath "http://ns.adobe.com/XPath/1.0/">
]>
<svg version="1.1" id="Layer_1" xmlns:x="&ns_extend;" xmlns:i="&ns_ai;" xmlns:graph="&ns_graphs;"
	 xmlns="http://www.w3.org/2000/svg" xmlns:xlink="http://www.w3.org/1999/xlink" x="0px" y="0px" viewBox="0 0 72 50"
	 style="enable-background:new 0 0 72 50;" xml:space="preserve">
<style type="text/css">
	.st0{fill:#417DC0;}
	.st1{fill:#22A6E4;}
	.st2{fill:#8DDBF5;}
	.st3{fill:#C4EDF9;}
</style>
<metadata>
	<sfw  xmlns="&ns_sfw;">
		<slices></slices>
		<sliceSourceBounds  bottomLeftOrigin="true" height="50" width="72" x="0" y="-50"></sliceSourceBounds>
	</sfw>
</metadata>
<g>
	<path class="st0" d="M65.4,50H9.5c-2.4,0-4.3-1.9-4.3-4.3V11.2c0-2.4,1.9-4.3,4.3-4.3h58.2c2.4,0,4.3,1.9,4.3,4.3v32.2
		C72,47,69,50,65.4,50z"/>
	<path class="st1" d="M60.7,41.9H4.2c-2.3,0-4.2-1.9-4.2-4.2V4.2C0,1.9,1.9,0,4.2,0h56.6c2.3,0,4.2,1.9,4.2,4.2v33.6
		C64.9,40.1,63,41.9,60.7,41.9z"/>
	<path class="st2" d="M49.7,7.2c-0.9-0.5-8,2.2-10.9,3.9l0-0.2c0-0.6-0.5-1-1-1l-4.9,0v15.5l8.8,9.7l2.1-4.3l4.8-0.6l-10.8-11l0-0.1
		c0.5,0,0.9-0.4,0.9-0.9c2.6,1.5,8.5,3.4,10.6,3.4c1.1,0,1.8-2.5,2.1-5.4C51.6,13.9,51.6,8.3,49.7,7.2z"/>
	<path class="st3" d="M32.9,9.9l-4.3,0c-0.5,0-1,0.4-1,1c0,0,0,0,0,0c-2.9-1.7-10.2-4.4-11.1-3.8c-1.8,1.2-1.8,6.7-1.6,9.1
		c0.3,2.9,1,5.4,2.1,5.4c2.1,0,8.1-2,10.6-3.6l0,0.3c0,0.3,0.2,0.6,0.5,0.8l-9.9,11.2l4.9,0.5l2.1,4.3l7.7-9.6l0,0V9.9z"/>
</g>
</svg>
