<svg enable-background="new 0 0 32 32" viewBox="0 0 32 32" xmlns="http://www.w3.org/2000/svg">
    <defs>
        <g id="icon-long-arrow-top">
            <path clip-rule="evenodd" d="m7.55961.0017395c.24082.0138648.47758.1109185.66158.2911605l6.12501 6c.3986.39052.3986 1.02369 0 1.41421-.3987.39053-1.045.39053-1.4437 0l-4.38232-4.2921v11.58499c0 .5523-.45704 1-1.02083 1s-1.02083-.4477-1.02083-1v-11.58499l-4.38233 4.2921c-.39866.39053-1.04502.39053-1.443679 0-.39866-.39052-.39866-1.02369 0-1.41421l6.124999-6c.184-.180242.42076-.2772957.66158-.2911605z" fill="#fff" fill-rule="evenodd"/>
        </g>
        <g id="icon-arrow-down">
            <path d="m2.7 4.3 5.3 5.3 5.3-5.3c.4-.4 1-.4 1.4 0s.4 1 0 1.4l-6 6c-.1.2-.5.3-.7.3s-.5-.1-.7-.3l-6-6c-.4-.4-.4-1 0-1.4s1-.4 1.4 0z" />
        </g>
        <g id="icon-arrow-up">
            <path d="m1.3 11.7c-.4-.4-.4-1 0-1.4l6-6c.2-.2.5-.3.7-.3s.6.1.7.3l6 6c.4.4.4 1 0 1.4s-1 .4-1.4 0l-5.3-5.3-5.3 5.3c-.4.4-1 .4-1.4 0z" />
        </g>
        <g id="icon-arrow-left">
            <path d="m12.8.3c.4.4.3 1-.1 1.4l-7.2 6.3 7.1 6.2c.4.4.5 1 .1 1.4s-1 .5-1.4.1l-8-7c-.3-.2-.3-.6-.3-.7s0-.5.3-.8l8-7c.5-.3 1.1-.3 1.5.1z" />
        </g>
        <g id="icon-arrow-right">
            <path d="m4.7.2 8 7c.3.3.3.7.3.8s0 .5-.3.8l-8 7c-.4.4-1 .3-1.4-.1s-.3-1 .1-1.4l7.1-6.3-7.2-6.2c-.4-.4-.5-1-.1-1.4.4-.5 1-.5 1.5-.2z" />
        </g>
        <g id="icon-footer-arrow">
            <path d="m9 12.6 4.3-4.3c.4-.4 1-.4 1.4 0s.4 1 0 1.4l-6 6c-.2.2-.4.3-.7.3s-.5-.1-.7-.3l-6-6c-.4-.4-.4-1 0-1.4s1-.4 1.4 0l4.3 4.3v-11.6c0-.6.4-1 1-1s1 .4 1 1z" />
        </g>
        <g id="icon-profile">
            <path d="m12 11c2.2091 0 4 1.7909 4 4 0 .5523-.4477 1-1 1s-1-.4477-1-1c0-1.1046-.8954-2-2-2h-8c-1.10457 0-2 .8954-2 2 0 .5523-.44772 1-1 1-.552285 0-1-.4477-1-1 0-2.2091 1.79086-4 4-4zm-4-11c2.7614 0 5 2.23858 5 5s-2.2386 5-5 5c-2.76142 0-5-2.23858-5-5s2.23858-5 5-5zm0 2c-1.65685 0-3 1.34315-3 3s1.34315 3 3 3 3-1.34315 3-3-1.34315-3-3-3z" />
        </g>
        <g id="icon-settings">
            <path d="m5 10c1.30625 0 2.41751.8349 2.82933 2.0001l7.17067-.0001c.5523 0 1 .4477 1 1s-.4477 1-1 1l-7.17102.0009c-.4121 1.1647-1.5231 1.9991-2.82898 1.9991s-2.41689-.8344-2.82898-1.9991l-1.17102-.0009c-.552285 0-1-.4477-1-1s.447715-1 1-1l1.17067.0001c.41182-1.1652 1.52308-2.0001 2.82933-2.0001zm0 2c-.55228 0-1 .4477-1 1s.44772 1 1 1 1-.4477 1-1-.44772-1-1-1zm7-7c1.3063 0 2.4175.83485 2.8293 2.00009l.1707-.00009c.5523 0 1 .44772 1 1 0 .55229-.4477 1-1 1l-.171.0009c-.4121 1.1647-1.5231 1.9991-2.829 1.9991s-2.41689-.8344-2.82898-1.9991l-8.17102-.0009c-.552285 0-1-.44771-1-1 0-.55228.447715-1 1-1l8.17067.00009c.41182-1.16524 1.52303-2.00009 2.82933-2.00009zm0 2c-.5523 0-1 .44772-1 1 0 .55229.4477 1 1 1s1-.44771 1-1c0-.55228-.4477-1-1-1zm-7-7c1.30625 0 2.41751.83485 2.82933 2.00009l7.17067-.00009c.5523 0 1 .44772 1 1s-.4477 1-1 1l-7.17102.0009c-.4121 1.16472-1.5231 1.9991-2.82898 1.9991s-2.41689-.83438-2.82898-1.9991l-1.17102-.0009c-.552285 0-1-.44772-1-1s.447715-1 1-1l1.17067.00009c.41182-1.16524 1.52308-2.00009 2.82933-2.00009zm0 2c-.55228 0-1 .44772-1 1s.44772 1 1 1 1-.44772 1-1-.44772-1-1-1z"/>
        </g>
        <g id="icon-completed-trades">
            <path d="m1 16c-.552285 0-1-.4477-1-1s.447715-1 1-1h2v-13c0-.552285.44772-1 1-1s1 .447715 1 1h10.8685l-3.6667 5.5 3.6667 5.5h-10.8685v2h2c.55228 0 1 .4477 1 1s-.44772 1-1 1h-3zm11.1315-13h-7.1315v7h7.1315l-2.33335-3.5z" />
        </g>
        <g id="icon-contacts">
            <path d="m13 0c1.6569 0 3 1.34315 3 3v10c0 1.6569-1.3431 3-3 3h-10c-1.65685 0-3-1.3431-3-3v-10c0-1.65685 1.34315-3 3-3zm0 2h-1v9.4142l-4-3.99999-4 3.99999v-9.4142h-1c-.55228 0-1 .44772-1 1v10c0 .5523.44772 1 1 1h10c.5523 0 1-.4477 1-1v-10c0-.55228-.4477-1-1-1zm-3 0h-4v4.58579l2-2 2 2z" />
        </g>
        <g id="icon-logout">
            <path d="m4 0c.55228 0 1 .447715 1 1 0 .55228-.44772 1-1 1h-2v12h2c.55228 0 1 .4477 1 1s-.44772 1-1 1h-3c-.552285 0-1-.4477-1-1v-.002-13.998c0-.552285.447715-1 1-1zm5.70711 1.29289 5.99999 6c.1953.19527.2929.45119.2929.70711s-.0976.51184-.2929.70711l-5.99999 5.99999c-.39053.3905-1.02369.3905-1.41422 0-.39052-.3905-.39052-1.0237 0-1.4142l4.29291-4.2929h-6.5858c-.55228 0-1-.44771-1-1 0-.55228.44772-1 1-1h6.5858l-4.29291-4.29289c-.39052-.39053-.39052-1.02369 0-1.41422.39053-.390521 1.02369-.390521 1.41422 0z" />
        </g>
        <g id="icon-notifications">
            <path d="m6 14h4c0 1.1046-.89543 2-2 2-1.05436 0-1.91817-.8159-1.99451-1.8507l-.00549-.1493h4zm2-14c2.7614 0 5 2.23858 5 5v6h2c.5523 0 1 .4477 1 1s-.4477 1-1 1h-14c-.552285 0-1-.4477-1-1s.447715-1 1-1h2v-6c0-2.76142 2.23858-5 5-5zm0 2c-1.65685 0-3 1.34315-3 3v6h6v-6c0-1.65685-1.34315-3-3-3z" />
        </g>
        <g id="icon-close">
            <path d="m3.79289 3.79289c.39053-.39052 1.02369-.39052 1.41422 0l2.79289 2.79211 2.7929-2.79211c.3605-.36048.9277-.38821 1.32-.08319l.0942.08319c.3905.39053.3905 1.02369 0 1.41422l-2.7921 2.79289 2.7921 2.7929c.3605.3605.3882.9277.0832 1.32l-.0832.0942c-.3905.3905-1.0237.3905-1.4142 0l-2.7929-2.7921-2.79289 2.7921c-.36049.3605-.92772.3882-1.32001.0832l-.09421-.0832c-.39052-.3905-.39052-1.0237 0-1.4142l2.79211-2.7929-2.79211-2.79289c-.36048-.36049-.38821-.92772-.08319-1.32001z"/>
        </g>
        <g id="icon-close-lg">
            <path d="m1.70711.292893 6.29289 6.292107 6.2929-6.292107c.3905-.3905241 1.0237-.3905241 1.4142 0 .3905.390525.3905 1.023687 0 1.414217l-6.2921 6.29289 6.2921 6.2929c.3905.3905.3905 1.0237 0 1.4142s-1.0237.3905-1.4142 0l-6.2929-6.2921-6.29289 6.2921c-.39053.3905-1.023692.3905-1.414217 0-.3905241-.3905-.3905241-1.0237 0-1.4142l6.292107-6.2929-6.292107-6.29289c-.3905241-.39053-.3905241-1.023692 0-1.414217.390525-.3905241 1.023687-.3905241 1.414217 0z"/>
        </g>
        <g id="icon-globe">
            <path d="m8 0c4.4 0 8 3.6 8 8s-3.6 8-8 8-8-3.6-8-8 3.6-8 8-8zm0 1.3c-.8 0-1.6.1-2.3.4.9.9 1.3 1.8.4 2.9-1.8 2.2-3.9 1.1-3.4 3.2.3 1.2.2 2.8-.3 3.8.4.6.9 1.2 1.5 1.6 1.7-.3 3.2-.3 4.1.4.4.3.8.7 1.2 1 1.8-.3 3.4-1.4 4.4-2.8-.6-1.5-2.8-.8-3.6-2.1-.8-1.4.9-2 1.5-2.9.7-1 .2-1.9-1.5-2.2-1.3-.3-2.1-1.6-1.6-3.3-.1 0-.3 0-.4 0z" />
        </g>
        <g id="user-rank-thumbs-up">
            <path d="m14.5 5.1c1 0 1.5.7 1.5 1.4 0 .4-.1.7-.4 1 .3.3.4.6.4 1 0 .6-.4 1.3-1.2 1.4.1.2.1.4.1.6 0 .4-.1.7-.4 1-.2.2-.5.4-.8.4.1.2.1.4.1.6 0 .7-.5 1.4-1.5 1.4h-3.5c-1.9 0-3.1-.4-4.5-.9h-.3v-6.9-.1c.1 0 .3-.1.4-.2.9-.4 1.4-.6 2-1.2.7-.7 1.2-2.6 1.3-3.7 0-.5.5-.9 1-.8.8 0 1.4.5 1.7 1.3.4 1.1.3 2.6-.4 3.7zm-14.1.9h2.3c.1 0 .3.2.3.4v6.2c0 .2-.2.4-.4.4h-2.2c-.2 0-.4-.2-.4-.4v-6.2c0-.2.2-.4.4-.4z" />
        </g>
        <g id="icon-help">
            <path d="m8 0c4.4 0 8 3.6 8 8s-3.6 8-8 8-8-3.6-8-8 3.6-8 8-8zm0 2c-3.3 0-6 2.7-6 6s2.7 6 6 6 6-2.7 6-6-2.7-6-6-6zm-.3 8.2c.3 0 .5.1.7.2.2.2.2.4.2.7s-.1.5-.2.7c-.1.1-.4.2-.7.2s-.5-.1-.7-.2c-.2-.2-.2-.4-.2-.7s.1-.5.2-.7c.2-.1.4-.2.7-.2zm.4-6.2c.7 0 1.3.2 1.8.5.4.3.7.8.7 1.4 0 .4-.1.7-.3 1s-.5.6-1 1c-.4.2-.7.4-.8.6-.1.1-.1.3-.1.5v.3h-1.4v-.4c0-.3 0-.6.2-.9.1-.2.4-.5.8-.8s.6-.5.8-.6c.1-.2.1-.4.1-.6s-.1-.4-.3-.5-.3-.2-.7-.2c-.5 0-1.2.2-1.9.5l-.5-1.1c.8-.5 1.7-.7 2.6-.7z" />
        </g>
        <path id="icon-info" d="m8 0c4.4 0 8 3.6 8 8s-3.6 8-8 8-8-3.6-8-8 3.6-8 8-8zm0 2c-3.3 0-6 2.7-6 6s2.7 6 6 6 6-2.7 6-6-2.7-6-6-6zm1 5v5h-2v-5zm0-3v2h-2v-2z" />
        <g id="icon-location">
            <path d="m8 0c3.9 0 7 3.1 7 7s-7 9-7 9-7-5.1-7-9 3.1-7 7-7zm0 3c-1.7 0-3 1.3-3 3s1.3 3 3 3 3-1.3 3-3-1.3-3-3-3z" />
        </g>
        <path id="icon-info-24" d="m12 0c6.6274 0 12 5.37258 12 12 0 6.6274-5.3726 12-12 12-6.62742 0-12-5.3726-12-12 0-6.62742 5.37258-12 12-12zm0 2c-5.52285 0-10 4.47715-10 10 0 5.5228 4.47715 10 10 10 5.5228 0 10-4.4772 10-10 0-5.52285-4.4772-10-10-10zm0 9c.5523 0 1 .4477 1 1v6c0 .5523-.4477 1-1 1s-1-.4477-1-1v-6c0-.5523.4477-1 1-1zm0-6c1.1046 0 2 .89543 2 2s-.8954 2-2 2-2-.89543-2-2 .8954-2 2-2z" />
        <g id="icon-ellipsis">
            <path d="m2 6c1.1 0 2 .9 2 2s-.9 2-2 2-2-.9-2-2 .9-2 2-2zm6 0c1.1 0 2 .9 2 2s-.9 2-2 2-2-.9-2-2 .9-2 2-2zm6 0c1.1 0 2 .9 2 2s-.9 2-2 2-2-.9-2-2 .9-2 2-2z" />
        </g>
        <g id="icon-check">
            <path d="m15.7 2.3c.4.4.4 1 .1 1.4l-9 10 .1-.1s-.1.1-.1.1 0 0-.1 0 0 0-.1 0 0 0-.1 0 0 0-.1 0c0 0 0 0-.1 0 0 0 0 0-.1 0 0 0 0 0-.1 0 0 0 0 0-.1 0 0 0 0 0-.1 0 0 0 0 0-.1 0 0 0 0 0-.1 0s0 0-.1 0c0 0 0 0-.1 0s0 0-.1 0 0 0-.1 0l-5-4c-.4-.3-.5-1-.2-1.4s1-.5 1.4-.2l4.3 3.4 8.4-9.3c.4-.3 1.1-.3 1.5.1z" />
        </g>
        <path id="sm-stat-icon" clip-rule="evenodd" d="m1 6.99997c.55228 0 1 .44771 1 1v7.00003c0 .5523-.44772 1-1 1-.552285 0-1-.4477-1-1v-7.00003c0-.55229.447715-1 1-1zm4-7.00000052c.55228 0 1 .44771552 1 .99999952v14.000031c0 .5523-.44772 1-1 1s-1-.4477-1-1v-14.000031c0-.552284.44772-.99999952 1-.99999952zm4 4.00000052c.55228 0 1 .44771 1 1v10.00003c0 .5523-.44772 1-1 1s-1-.4477-1-1v-10.00003c0-.55229.44772-1 1-1z"/>
        <g id="upload-image-icon-list">
            <mask id="a" fill="#fff"><path clip-rule="evenodd" d="m3.41421 92.5857c-1.25993 1.26-3.41421.3676-3.41421-1.4142v-86.34313c0-1.78181 2.15429-2.67414 3.41422-1.41421l1.17157 1.17157c.78105.78105 2.04738.78105 2.82842 0l3.17159-3.17157c.781-.781053 2.0474-.781053 2.8284 0l3.1716 3.17157c.781.78105 2.0474.78105 2.8284 0l3.1716-3.17157c.781-.781053 2.0474-.781053 2.8284 0l3.1716 3.17157c.781.78105 2.0474.78105 2.8284 0l3.1716-3.17157c.781-.781053 2.0474-.781053 2.8284 0l3.1716 3.17157c.781.78105 2.0474.78105 2.8284 0l3.1716-3.17157c.781-.781053 2.0474-.781053 2.8284 0l3.1716 3.17157c.781.78105 2.0474.78105 2.8284 0l3.1716-3.17157c.781-.781053 2.0474-.781053 2.8284 0l3.1716 3.17157c.781.78105 2.0474.78105 2.8284 0l1.1716-1.17157c1.2599-1.25993 3.4142-.3676 3.4142 1.41421v86.34313c0 1.7818-2.1543 2.6742-3.4142 1.4142l-1.1716-1.1715c-.781-.7811-2.0474-.7811-2.8284 0l-3.1716 3.1715c-.781.7811-2.0474.7811-2.8284 0l-3.1716-3.1715c-.781-.7811-2.0474-.7811-2.8284 0l-3.1716 3.1715c-.781.7811-2.0474.7811-2.8284 0l-3.1716-3.1715c-.781-.7811-2.0474-.7811-2.8284 0l-3.1716 3.1715c-.781.7811-2.0474.7811-2.8284 0l-3.1716-3.1715c-.781-.7811-2.0474-.7811-2.8284 0l-3.1716 3.1715c-.781.7811-2.0474.7811-2.8284 0l-3.1716-3.1715c-.781-.7811-2.0474-.7811-2.8284 0l-3.1716 3.1715c-.781.7811-2.0474.7811-2.8284 0l-3.17159-3.1715c-.78105-.7811-2.04738-.7811-2.82842 0z" fill="#fff" fill-rule="evenodd"/></mask><path clip-rule="evenodd" d="m3.41421 92.5857c-1.25993 1.26-3.41421.3676-3.41421-1.4142v-86.34313c0-1.78181 2.15429-2.67414 3.41422-1.41421l1.17157 1.17157c.78105.78105 2.04738.78105 2.82842 0l3.17159-3.17157c.781-.781053 2.0474-.781053 2.8284 0l3.1716 3.17157c.781.78105 2.0474.78105 2.8284 0l3.1716-3.17157c.781-.781053 2.0474-.781053 2.8284 0l3.1716 3.17157c.781.78105 2.0474.78105 2.8284 0l3.1716-3.17157c.781-.781053 2.0474-.781053 2.8284 0l3.1716 3.17157c.781.78105 2.0474.78105 2.8284 0l3.1716-3.17157c.781-.781053 2.0474-.781053 2.8284 0l3.1716 3.17157c.781.78105 2.0474.78105 2.8284 0l3.1716-3.17157c.781-.781053 2.0474-.781053 2.8284 0l3.1716 3.17157c.781.78105 2.0474.78105 2.8284 0l1.1716-1.17157c1.2599-1.25993 3.4142-.3676 3.4142 1.41421v86.34313c0 1.7818-2.1543 2.6742-3.4142 1.4142l-1.1716-1.1715c-.781-.7811-2.0474-.7811-2.8284 0l-3.1716 3.1715c-.781.7811-2.0474.7811-2.8284 0l-3.1716-3.1715c-.781-.7811-2.0474-.7811-2.8284 0l-3.1716 3.1715c-.781.7811-2.0474.7811-2.8284 0l-3.1716-3.1715c-.781-.7811-2.0474-.7811-2.8284 0l-3.1716 3.1715c-.781.7811-2.0474.7811-2.8284 0l-3.1716-3.1715c-.781-.7811-2.0474-.7811-2.8284 0l-3.1716 3.1715c-.781.7811-2.0474.7811-2.8284 0l-3.1716-3.1715c-.781-.7811-2.0474-.7811-2.8284 0l-3.1716 3.1715c-.781.7811-2.0474.7811-2.8284 0l-3.17159-3.1715c-.78105-.7811-2.04738-.7811-2.82842 0z" fill="#fff" fill-rule="evenodd"/><path d="m7.41421 91.4142-.7071.7071zm-2.82842 0 .7071.7071zm8.82841 3.1715-.7071-.7071zm-2.8284 0 .7071-.7071zm8.8284-3.1715-.7071.7071zm-2.8284 0 .7071.7071zm8.8284 3.1715-.7071-.7071zm-2.8284 0 .7071-.7071zm8.8284-3.1715-.7071.7071zm-2.8284 0 .7071.7071zm40-88.00004-.7071-.70711zm-4 1.17157-.7071.7071zm2.8284 0 .7071.7071zm-8.8284-3.17157-.7071-.707112zm2.8284 0 .7071-.707111zm-8.8284 3.17157-.7071.7071zm2.8284 0 .7071.7071zm-8.8284-3.17157-.7071-.707112zm2.8284 0 .7071-.707111zm-8.8284 3.17157-.7071.7071zm2.8284 0 .7071.7071zm-8.8284-3.17157-.7071-.707112zm2.8284 0 .7071-.707111zm-33.99999 91.17154-.7071-.7071zm-4.41421-87.75733v86.34313h2v-86.34313zm6.29289-.94975-1.17157-1.17157-1.41421 1.41421 1.17157 1.17157zm4.58579-3.171572-3.17157 3.171572 1.41421 1.41421 3.17158-3.17157zm7.41422 3.171572-3.1716-3.171571-1.4142 1.414211 3.1716 3.17157zm4.5858-3.171572-3.1716 3.171572 1.4142 1.41421 3.1716-3.17157zm7.4142 3.171572-3.1716-3.171571-1.4142 1.414211 3.1716 3.17157zm4.5858-3.171572-3.1716 3.171572 1.4142 1.41421 3.1716-3.17157zm7.4142 3.171572-3.1716-3.171571-1.4142 1.414211 3.1716 3.17157zm4.5858-3.171572-3.1716 3.171572 1.4142 1.41421 3.1716-3.17157zm7.4142 3.171572-3.1716-3.171571-1.4142 1.414211 3.1716 3.17157zm4.5858-3.171572-3.1716 3.171572 1.4142 1.41421 3.1716-3.17157zm7.4142 3.171572-3.1716-3.171571-1.4142 1.414211 3.1716 3.17157zm2.5858-1.17157-1.1716 1.17157 1.4142 1.41421 1.1716-1.17157zm5.1213 88.46445v-86.34313h-2v86.34313zm-6.2929.9498 1.1716 1.1715 1.4142-1.4142-1.1716-1.1716zm-4.5858 3.1715 3.1716-3.1715-1.4142-1.4143-3.1716 3.1716zm-7.4142-3.1715 3.1716 3.1715 1.4142-1.4142-3.1716-3.1716zm-4.5858 3.1715 3.1716-3.1715-1.4142-1.4143-3.1716 3.1716zm-7.4142-3.1715 3.1716 3.1715 1.4142-1.4142-3.1716-3.1716zm-4.5858 3.1715 3.1716-3.1715-1.4142-1.4143-3.1716 3.1716zm-7.4142-3.1715 3.1716 3.1715 1.4142-1.4142-3.1716-3.1716zm-4.5858 3.1715 3.1716-3.1715-1.4142-1.4143-3.1716 3.1716zm-7.4142-3.1715 3.1716 3.1715 1.4142-1.4142-3.1716-3.1716zm-4.5858 3.1715 3.1716-3.1715-1.4142-1.4143-3.1716 3.1716zm-7.41419-3.1715 3.17157 3.1715 1.41422-1.4142-3.17158-3.1716zm-2.58579 1.1715 1.17157-1.1715-1.41421-1.4143-1.17157 1.1716zm4-2.5858c-1.17157-1.1715-3.07107-1.1715-4.24264 0l1.41421 1.4143c.39053-.3906 1.02369-.3906 1.41422 0zm4.58578 3.1716c-.3905.3905-1.0237.3905-1.4142 0l-1.41422 1.4142c1.17162 1.1716 3.07102 1.1716 4.24262 0zm7.4142-3.1716c-1.1716-1.1715-3.071-1.1715-4.2426 0l1.4142 1.4143c.3905-.3906 1.0237-.3906 1.4142 0zm4.5858 3.1716c-.3905.3905-1.0237.3905-1.4142 0l-1.4142 1.4142c1.1716 1.1716 3.071 1.1716 4.2426 0zm7.4142-3.1716c-1.1716-1.1715-3.071-1.1715-4.2426 0l1.4142 1.4143c.3905-.3906 1.0237-.3906 1.4142 0zm4.5858 3.1716c-.3905.3905-1.0237.3905-1.4142 0l-1.4142 1.4142c1.1716 1.1716 3.071 1.1716 4.2426 0zm7.4142-3.1716c-1.1716-1.1715-3.071-1.1715-4.2426 0l1.4142 1.4143c.3905-.3906 1.0237-.3906 1.4142 0zm4.5858 3.1716c-.3905.3905-1.0237.3905-1.4142 0l-1.4142 1.4142c1.1716 1.1716 3.071 1.1716 4.2426 0zm7.4142-3.1716c-1.1716-1.1715-3.071-1.1715-4.2426 0l1.4142 1.4143c.3905-.3906 1.0237-.3906 1.4142 0zm4.5858 3.1716c-.3905.3905-1.0237.3905-1.4142 0l-1.4142 1.4142c1.1716 1.1716 3.071 1.1716 4.2426 0zm7.4142-3.1716c-1.1716-1.1715-3.071-1.1715-4.2426 0l1.4142 1.4143c.3905-.3906 1.0237-.3906 1.4142 0zm2.8787.4645c0 .8909-1.0771 1.3371-1.7071.7071l-1.4142 1.4142c1.8899 1.8899 5.1213.5514 5.1213-2.1213zm-1.7071-87.05024c.63-.62996 1.7071-.1838 1.7071.70711h2c0-2.67271-3.2314-4.011216-5.1213-2.12132zm-5.4142 1.17157c1.1716 1.17158 3.071 1.17158 4.2426 0l-1.4142-1.41421c-.3905.39053-1.0237.39053-1.4142 0zm-4.5858-3.17157c.3905-.39052 1.0237-.39052 1.4142 0l1.4142-1.414211c-1.1716-1.171572-3.071-1.171574-4.2426-.000001zm-7.4142 3.17157c1.1716 1.17158 3.071 1.17158 4.2426 0l-1.4142-1.41421c-.3905.39053-1.0237.39053-1.4142 0zm-4.5858-3.17157c.3905-.39052 1.0237-.39052 1.4142 0l1.4142-1.414211c-1.1716-1.171572-3.071-1.171574-4.2426-.000001zm-7.4142 3.17157c1.1716 1.17158 3.071 1.17158 4.2426 0l-1.4142-1.41421c-.3905.39053-1.0237.39053-1.4142 0zm-4.5858-3.17157c.3905-.39052 1.0237-.39052 1.4142 0l1.4142-1.414211c-1.1716-1.171572-3.071-1.171574-4.2426-.000001zm-7.4142 3.17157c1.1716 1.17158 3.071 1.17158 4.2426 0l-1.4142-1.41421c-.3905.39053-1.0237.39053-1.4142 0zm-4.5858-3.17157c.3905-.39052 1.0237-.39052 1.4142 0l1.4142-1.414211c-1.1716-1.171572-3.071-1.171574-4.2426-.000001zm-7.4142 3.17157c1.1716 1.17158 3.071 1.17158 4.2426 0l-1.4142-1.41421c-.3905.39053-1.0237.39053-1.4142 0zm-4.5858-3.17157c.3905-.39052 1.0237-.39052 1.4142 0l1.4142-1.414211c-1.1716-1.171572-3.071-1.171574-4.24262-.000001zm-7.41422 3.17157c1.17157 1.17158 3.07107 1.17158 4.24264 0l-1.41421-1.41421c-.39053.39053-1.02369.39053-1.41422 0zm-4.87868 85.87867c0 2.6727 3.23143 4.0112 5.12132 2.1213l-1.41421-1.4142c-.62997.63-1.70711.1838-1.70711-.7071zm2-86.34313c0-.8909 1.07714-1.33707 1.70711-.70711l1.41421-1.41421c-1.88989-1.889892-5.12132-.5514-5.12132 2.12132z" fill="#623590" mask="url(#a)"/><path d="m0 74.5h72" stroke="#623590" stroke-dasharray="5 5"/><path clip-rule="evenodd" d="m8 16c0-.5523.44772-1 1-1h10c.5523 0 1 .4477 1 1s-.4477 1-1 1h-10c-.55228 0-1-.4477-1-1zm0 6c0-.5523.44772-1 1-1h21c.5523 0 1 .4477 1 1s-.4477 1-1 1h-21c-.55228 0-1-.4477-1-1zm1 29c-.55228 0-1 .4477-1 1s.44772 1 1 1h41c.5523 0 1-.4477 1-1s-.4477-1-1-1zm-1 7c0-.5523.44772-1 1-1h26c.5523 0 1 .4477 1 1s-.4477 1-1 1h-26c-.55229 0-1-.4477-1-1zm1 5c-.55228 0-1 .4477-1 1s.44771 1 1 1h54c.5523 0 1-.4477 1-1s-.4477-1-1-1z" fill="#d3c7e0" fill-rule="evenodd"/>
        </g>
        <g id="icon-search">
            <path clip-rule="evenodd" d="m6.5 0c3.5899 0 6.5 2.91015 6.5 6.5 0 1.43416-.4645 2.75983-1.2512 3.8348l3.9583 3.9581c.3905.3905.3905 1.0237 0 1.4142s-1.0237.3905-1.4142 0l-3.9581-3.9583c-1.07497.7867-2.40064 1.2512-3.8348 1.2512-3.58985 0-6.5-2.9101-6.5-6.5 0-3.58985 2.91015-6.5 6.5-6.5zm0 2c-2.48528 0-4.5 2.01472-4.5 4.5s2.01472 4.5 4.5 4.5 4.5-2.01472 4.5-4.5-2.01472-4.5-4.5-4.5z" fill="#fff" fill-rule="evenodd"/>
        </g>
        <g id="shout">
            <path d="m10.5 6h1.5v21h-1.5c-5.79899 0-10.5-4.701-10.5-10.5s4.70101-10.5 10.5-10.5z" fill="#f98491"/>
            <path d="m15 24.75h9v18.75c0 2.4853-2.0147 4.5-4.5 4.5s-4.5-2.0147-4.5-4.5z" fill="#f98491"/>
            <g fill="#e3394d">
                <path d="m22.125 31.5h1.875v3.75h-1.875c-1.0355 0-1.875-.8395-1.875-1.875s.8395-1.875 1.875-1.875z"/>
                <path d="m36.75 0v33c-5.8685-3.9123-12.7636-6-19.8167-6h-4.9333v-21h4.9333c7.0531 0 13.9482-2.0877 19.8167-6z"/>
                <path d="m40.2327 25.0127 7.0477 2.5651c.3892.1417.5899.5721.4482.9613s-.572.5899-.9613.4482l-7.0477-2.5651c-.3892-.1417-.5899-.5721-.4482-.9613s.572-.5899.9613-.4482zm7.0173-9.2627c.4142 0 .75.3358.75.75s-.3358.75-.75.75h-7.5c-.4142 0-.75-.3358-.75-.75s.3358-.75.75-.75zm.4786-11.28909c.1417.38924-.059.81962-.4482.96129l-7.0477 2.56515c-.3893.14167-.8196-.05902-.9613-.44826-.1417-.38923.059-.81961.4482-.96128l7.0477-2.56515c.3893-.14167.8196.05902.9613.44825z"/>
            </g>
        </g>
        <g id="icon-download">
            <path  d="m2 14h12v-3c0-.5522847.4477153-1 1-1s1 .4477153 1 1v4c0 .2761424-.1119288.5261424-.2928932.7071068s-.4309644.2928932-.7071068.2928932h-14c-.55228475 0-1-.4477153-1-1v-4c0-.5522847.44771525-1 1-1s1 .4477153 1 1zm7-6.41421356 3.2928932-3.29289322c.3905243-.39052429 1.0236893-.39052429 1.4142136 0s.3905243 1.02368927 0 1.41421356l-5.00000002 5.00000002c-.19526214.1952621-.45118446.2928932-.70710678.2928932s-.51184464-.0976311-.70710678-.2928932l-5-5.00000002c-.39052429-.39052429-.39052429-1.02368927 0-1.41421356s1.02368927-.39052429 1.41421356 0l3.29289322 3.29289322v-6.58578644c0-.55228475.44771525-1 1-1s1 .44771525 1 1z" fill="#a9a9a9" fill-rule="evenodd"/>
        </g>
        <g id="icon-burger">
            <path d="m15 12c.5523 0 1 .4477 1 1s-.4477 1-1 1h-14c-.552285 0-1-.4477-1-1s.447715-1 1-1zm0-5c.5523 0 1 .44772 1 1s-.4477 1-1 1h-14c-.552285 0-1-.44772-1-1s.447715-1 1-1zm0-5c.5523 0 1 .44772 1 1s-.4477 1-1 1h-14c-.552285 0-1-.44772-1-1s.447715-1 1-1z" />
        </g>
        <g id="icon-copy">
            <path d="m10 0c1.1 0 2 .9 2 2h1c1.7 0 3 1.3 3 3v8c0 1.7-1.3 3-3 3h-8c-1.7 0-3-1.3-3-3v-1c-1.1 0-2-.9-2-2v-8c0-1.1.9-2 2-2zm3 3h-1v7c0 1.1-.9 2-2 2h-7v1c0 1.1.9 2 2 2h8c1.1 0 2-.9 2-2v-8c0-1.1-.9-2-2-2z"/>
        </g>
        <g id="icon-binance">
            <path d="m7.33912 10.0849 4.66078-4.66066 4.6632 4.66306 2.7119-2.71195-7.3751-7.37547207-7.37273 7.37300207zm-1.91518 1.9144-2.7119-2.71199-2.71204 2.71209 2.7119 2.7119zm6.57596 6.5763-4.6608-4.6606-2.71593 2.7084.00379.0037 7.37294 7.3729 7.3751-7.3753.0014-.0015-2.7135-2.7105zm9.2881-3.8631 2.712-2.712-2.7119-2.71199-2.712 2.71209zm-6.5362-2.7143h-.0011l.0025.0014-.0014.0015-2.7519 2.752-2.7495-2.7496-.00379-.0039.00379-.0038.48204-.4821.23353-.2337h.00019l2.03374-2.03375z" />
        </g>
    </defs>
</svg>
