<?xml version="1.0" encoding="utf-8"?>
<!-- Generator: Adobe Illustrator 23.0.1, SVG Export Plug-In . SVG Version: 6.00 Build 0)  -->
<!DOCTYPE svg PUBLIC "-//W3C//DTD SVG 1.1//EN" "http://www.w3.org/Graphics/SVG/1.1/DTD/svg11.dtd" [
	<!ENTITY ns_extend "http://ns.adobe.com/Extensibility/1.0/">
	<!ENTITY ns_ai "http://ns.adobe.com/AdobeIllustrator/10.0/">
	<!ENTITY ns_graphs "http://ns.adobe.com/Graphs/1.0/">
	<!ENTITY ns_vars "http://ns.adobe.com/Variables/1.0/">
	<!ENTITY ns_imrep "http://ns.adobe.com/ImageReplacement/1.0/">
	<!ENTITY ns_sfw "http://ns.adobe.com/SaveForWeb/1.0/">
	<!ENTITY ns_custom "http://ns.adobe.com/GenericCustomNamespace/1.0/">
	<!ENTITY ns_adobe_xpath "http://ns.adobe.com/XPath/1.0/">
]>
<svg version="1.1" id="Layer_1" xmlns:x="&ns_extend;" xmlns:i="&ns_ai;" xmlns:graph="&ns_graphs;"
	 xmlns="http://www.w3.org/2000/svg" xmlns:xlink="http://www.w3.org/1999/xlink" x="0px" y="0px" viewBox="0 0 44 44"
	 style="enable-background:new 0 0 44 44;" xml:space="preserve">
<style type="text/css">
	.st0{fill:#fc932b;}
</style>
<metadata>
	<sfw  xmlns="&ns_sfw;">
		<slices></slices>
		<sliceSourceBounds  bottomLeftOrigin="true" height="44" width="44" x="128" y="-147"></sliceSourceBounds>
	</sfw>
</metadata>
<g>
	<path class="st0" d="M19.7,22.8L18.2,29c1.9,0.4,7.8,2.4,8.7-1.2C27.8,24.2,21.7,23.3,19.7,22.8z"/>
	<path class="st0" d="M21.9,14.3L20.5,20c1.6,0.4,6.5,2,7.3-1.2C28.5,15.5,23.5,14.8,21.9,14.3z"/>
	<path class="st0" d="M27.3,0.7C15.5-2.3,3.6,5,0.7,16.7c-2.9,11.8,4.2,23.7,16,26.7s23.7-4.2,26.7-16C46.3,15.6,39.1,3.7,27.3,0.7z
		 M33.4,18.3c-0.3,2.5-1.7,3.8-3.6,4.2c2.6,1.3,3.9,3.3,2.6,6.9c-1.5,4.4-5.2,4.7-10,3.9L21.1,38l-2.8-0.9l1.2-4.6
		c-0.8-0.2-1.5-0.4-2.3-0.5l-1.2,4.6l-2.8-0.8l1.2-4.7c-0.6-0.2-1.3-0.3-2-0.5l-3.6-1l1.4-3.2l2,0.5c0.8,0.2,1.2-0.3,1.3-0.6
		l3.1-12.7c0-0.6-0.2-1.4-1.3-1.6l-2-0.5l0.8-3l3.9,1l0,0c0.5,0.1,1.2,0.3,1.8,0.4l1.2-4.6L23.7,6l-1.2,4.5c0.8,0.2,1.5,0.3,2.3,0.5
		l1.1-4.5l2.8,0.8l-1.2,4.6C31.2,13.1,33.9,14.9,33.4,18.3z"/>
</g>
</svg>
